<svg width="250" height="45" viewBox="0 0 250 45" fill="none" xmlns="http://www.w3.org/2000/svg">
<path opacity="0.9" d="M23.1219 32.4291C22.6755 32.6076 22.4077 32.6522 22.006 32.6522C21.2918 32.6522 20.7561 32.1166 20.7561 31.1792V22.2519C20.7561 16.9847 17.453 13.9048 11.6949 13.9048C6.33843 13.9048 2.63357 16.6276 2.27648 21.3591H6.11525C6.38307 18.7255 8.30245 17.2525 11.427 17.2525C14.9533 17.2525 16.8281 19.1273 16.8281 22.1626V23.591H12.2305C6.15989 23.591 1.78547 25.555 1.78547 30.2865C1.78547 33.7682 4.2405 36.2232 9.19519 36.2232C14.0606 36.2232 16.0693 33.9021 16.8727 32.6522C17.1405 34.7948 18.6582 36.2232 20.9347 36.2232C21.8721 36.2232 22.6755 36.0893 23.4343 35.8661L23.1219 32.4291ZM9.99865 33.054C7.05262 33.054 5.80279 31.938 5.80279 30.1079C5.80279 27.6975 7.90072 26.4477 12.0073 26.4477H16.8281V27.9654C16.8281 29.974 14.4177 33.054 9.99865 33.054ZM36.9157 13.9048C33.3448 13.9048 30.8451 15.5563 29.4614 17.7882L29.3721 14.1279H25.5333V44.9274H29.4614V32.6522C30.7558 34.7502 33.0769 36.2232 36.6479 36.2232C42.7631 36.2232 46.8697 31.5363 46.8697 24.7962C46.8697 18.1453 42.8524 13.9048 36.9157 13.9048ZM36.3801 32.8754C31.6039 32.8754 29.4614 28.8135 29.4614 25.5103V24.5283C29.4614 21.3145 31.6932 17.2525 36.4693 17.2525C40.3974 17.2525 42.8524 20.2432 42.8524 24.8854C42.8524 29.6169 40.3081 32.8754 36.3801 32.8754ZM59.4507 13.9048C52.9784 13.9048 48.6486 18.6363 48.6486 25.2872C48.6486 31.8934 52.9784 36.2232 59.4507 36.2232C66.0123 36.2232 70.2974 31.6256 70.2974 25.0193C70.2974 18.3684 66.0123 13.9048 59.4507 13.9048ZM59.4507 17.2525C63.6019 17.2525 66.2801 20.511 66.2801 25.1532C66.2801 29.7508 63.6019 32.8754 59.4507 32.8754C55.3887 32.8754 52.6659 29.7508 52.6659 25.1532C52.6659 20.511 55.3887 17.2525 59.4507 17.2525ZM79.5558 32.4291C79.1094 32.6076 78.8862 32.6522 78.5291 32.6522C77.7703 32.6522 77.19 32.1166 77.19 31.1792V4.30784H73.262V31.938C73.262 34.4823 74.8243 36.2232 77.3686 36.2232C78.3059 36.2232 79.1094 36.0893 79.8682 35.8661L79.5558 32.4291ZM88.6226 32.4291C88.1763 32.6076 87.9531 32.6522 87.596 32.6522C86.8371 32.6522 86.2569 32.1166 86.2569 31.1792V4.30784H82.3288V31.938C82.3288 34.4823 83.8911 36.2232 86.4354 36.2232C87.3728 36.2232 88.1763 36.0893 88.9351 35.8661L88.6226 32.4291ZM100.775 13.9048C94.3023 13.9048 89.9725 18.6363 89.9725 25.2872C89.9725 31.8934 94.3023 36.2232 100.775 36.2232C107.336 36.2232 111.621 31.6256 111.621 25.0193C111.621 18.3684 107.336 13.9048 100.775 13.9048ZM100.775 17.2525C104.926 17.2525 107.604 20.511 107.604 25.1532C107.604 29.7508 104.926 32.8754 100.775 32.8754C96.7127 32.8754 93.9898 29.7508 93.9898 25.1532C93.9898 20.511 96.7127 17.2525 100.775 17.2525ZM125.861 20.0646C125.861 18.3238 127.289 17.2525 130.28 17.2525C133.047 17.2525 134.699 18.3684 134.878 20.511L138.538 20.5557C138.359 16.3152 135.636 13.9048 130.369 13.9048C125.057 13.9048 121.978 16.4491 121.978 20.0646C121.978 28.5903 134.967 24.9747 134.967 30.0633C134.967 31.7149 133.538 32.8754 130.146 32.8754C126.575 32.8754 125.236 31.7149 125.013 29.6169L121.397 29.5723C121.486 33.8128 124.075 36.2232 130.101 36.2232C135.726 36.2232 138.85 33.6789 138.85 30.0633C138.85 21.2698 125.861 25.064 125.861 20.0646ZM154.024 32.2505C153.087 32.6522 152.15 32.7861 151.168 32.7861C147.597 32.7861 146.57 31.0007 146.57 28.8135V17.4311H153.667V14.1279H146.57V7.61097H142.865V14.1279H139.339V17.5203H142.642V28.8135C142.642 33.3664 145.677 36.2232 150.766 36.2232C152.15 36.2232 153.489 36 154.203 35.6875L154.024 32.2505ZM170.282 14.1279V26.8494C170.282 30.6436 167.916 32.8754 164.747 32.8754C161.578 32.8754 159.837 31.0453 159.837 27.8315V14.1279H155.864V28.4117C155.864 33.1879 158.81 36.2232 163.586 36.2232C166.711 36.2232 168.987 34.7948 170.327 32.7861L170.505 36H174.21V14.1279H170.282ZM194.693 4.30784V17.4757C193.399 15.3778 191.077 13.9048 187.506 13.9048C181.391 13.9048 177.285 18.5916 177.285 25.3318C177.285 31.9827 181.302 36.2232 187.239 36.2232C190.81 36.2232 193.309 34.5716 194.693 32.3398L194.782 36H198.621V4.30784H194.693ZM187.685 32.8754C183.757 32.8754 181.302 29.8848 181.302 25.2425C181.302 20.511 183.846 17.2525 187.774 17.2525C192.55 17.2525 194.693 21.3145 194.693 24.6176V25.5996C194.693 28.8135 192.461 32.8754 187.685 32.8754ZM207.855 6.98605C207.855 5.4684 206.65 4.30784 205.132 4.30784C203.615 4.30784 202.41 5.4684 202.41 6.98605C202.41 8.54834 203.615 9.66426 205.132 9.66426C206.65 9.66426 207.855 8.54834 207.855 6.98605ZM203.035 36H207.007V14.1279H203.035V36ZM220.911 13.9048C214.438 13.9048 210.108 18.6363 210.108 25.2872C210.108 31.8934 214.438 36.2232 220.911 36.2232C227.472 36.2232 231.757 31.6256 231.757 25.0193C231.757 18.3684 227.472 13.9048 220.911 13.9048ZM220.911 17.2525C225.062 17.2525 227.74 20.511 227.74 25.1532C227.74 29.7508 225.062 32.8754 220.911 32.8754C216.849 32.8754 214.126 29.7508 214.126 25.1532C214.126 20.511 216.849 17.2525 220.911 17.2525ZM231.597 41.1779H249.943V38.2318H231.597V41.1779Z" fill="white"/>
</svg>
