<svg width="1584" height="469" viewBox="0 0 1584 469" fill="none" xmlns="http://www.w3.org/2000/svg">
<path fill-rule="evenodd" clip-rule="evenodd" d="M468.056 239.924L467.056 239.901C467.097 238.106 467.117 236.305 467.117 234.5C467.117 232.695 467.097 230.894 467.056 229.099L468.056 229.076C468.097 230.879 468.117 232.687 468.117 234.5C468.117 236.313 468.097 238.121 468.056 239.924ZM467.564 218.276L466.566 218.345C466.32 214.748 465.992 211.174 465.584 207.625L466.578 207.511C466.987 211.075 467.316 214.665 467.564 218.276ZM465.097 196.802L464.11 196.962C463.534 193.406 462.878 189.878 462.144 186.378L463.122 186.173C463.86 189.687 464.519 193.231 465.097 196.802ZM460.656 175.646L459.688 175.897C458.785 172.412 457.804 168.959 456.746 165.539L457.702 165.244C458.764 168.678 459.749 172.146 460.656 175.646ZM454.266 154.989L453.325 155.328C452.103 151.945 450.805 148.597 449.433 145.288L450.357 144.905C451.735 148.228 453.039 151.59 454.266 154.989ZM445.983 135.015L445.078 135.44C443.548 132.187 441.945 128.974 440.271 125.805L441.156 125.338C442.837 128.521 444.447 131.747 445.983 135.015ZM435.885 115.896L435.023 116.403C433.2 113.307 431.307 110.257 429.347 107.254L430.184 106.707C432.153 109.723 434.054 112.786 435.885 115.896ZM424.065 97.7917L423.254 98.3764C421.154 95.4626 418.988 92.5993 416.759 89.7886L417.542 89.1672C419.781 91.9899 421.956 94.8654 424.065 97.7917ZM410.629 80.8518L409.875 81.5085C407.517 78.8011 405.098 76.1486 402.619 73.5533L403.342 72.8626C405.832 75.469 408.261 78.1328 410.629 80.8518ZM395.696 65.2164L395.005 65.9395C392.41 63.4607 389.758 61.0413 387.05 58.6833L387.707 57.9292C390.426 60.2972 393.09 62.727 395.696 65.2164ZM379.391 51.0167L378.77 51.8001C375.959 49.5709 373.096 47.4051 370.182 45.3049L370.767 44.4937C373.693 46.6028 376.569 48.7779 379.391 51.0167ZM361.851 38.3747L361.305 39.2121C358.302 37.2517 355.252 35.3587 352.155 33.5352L352.663 32.6735C355.772 34.5048 358.836 36.4059 361.851 38.3747ZM343.22 27.403L342.753 28.2872C339.584 26.6133 336.372 25.0103 333.118 23.4803L333.544 22.5754C336.811 24.1119 340.038 25.7219 343.22 27.403ZM323.653 18.2019L323.27 19.1257C319.961 17.7535 316.614 16.4554 313.23 15.2334L313.57 14.2928C316.968 15.5201 320.33 16.8238 323.653 18.2019ZM303.315 10.857L303.019 11.8124C299.6 10.7546 296.146 9.77342 292.662 8.87086L292.912 7.9028C296.412 8.80926 299.88 9.79467 303.315 10.857ZM282.386 5.43633C278.871 4.69853 275.328 4.03958 271.757 3.46141L271.597 4.44855C275.152 5.02424 278.681 5.68037 282.18 6.415L282.386 5.43633ZM261.048 1.98067L260.934 2.97415C257.384 2.5666 253.811 2.2388 250.214 1.99258L250.282 0.994913C253.894 1.24218 257.483 1.57138 261.048 1.98067ZM239.483 0.503017L239.46 1.50276C237.664 1.46193 235.864 1.44141 234.059 1.44141C232.253 1.44141 230.453 1.46193 228.657 1.50275L228.635 0.503013C230.438 0.462016 232.246 0.441406 234.059 0.441406C235.871 0.441406 237.68 0.462017 239.483 0.503017ZM217.835 0.994902L217.903 1.99257C214.307 2.23879 210.733 2.56659 207.183 2.97413L207.069 1.98066C210.634 1.57137 214.223 1.24217 217.835 0.994902ZM196.36 3.46139L196.52 4.44853C192.965 5.02422 189.436 5.68034 185.937 6.41497L185.731 5.4363C189.246 4.6985 192.79 4.03955 196.36 3.46139ZM175.205 7.90276L175.456 8.87082C171.971 9.77338 168.518 10.7546 165.098 11.8123L164.802 10.857C168.237 9.79463 171.705 8.80923 175.205 7.90276ZM154.547 14.2928L154.887 15.2333C151.503 16.4553 148.156 17.7535 144.847 19.1256L144.464 18.2019C147.787 16.8238 151.149 15.5201 154.547 14.2928ZM134.573 22.5753L134.999 23.4803C131.745 25.0102 128.533 26.6133 125.364 28.2872L124.897 27.4029C128.08 25.7218 131.306 24.1119 134.573 22.5753ZM115.455 32.6735L115.962 33.5351C112.866 35.3586 109.815 37.2516 106.813 39.212L106.266 38.3747C109.281 36.4059 112.345 34.5048 115.455 32.6735ZM97.3503 44.4937L97.935 45.3049C95.0212 47.405 92.1579 49.5708 89.3472 51.8001L88.7258 51.0166C91.5485 48.7778 94.424 46.6028 97.3503 44.4937ZM80.4104 57.9292L81.0671 58.6833C78.3597 61.0412 75.7072 63.4607 73.1119 65.9395L72.4212 65.2163C75.0276 62.727 77.6914 60.2972 80.4104 57.9292ZM64.775 72.8626L65.4981 73.5532C63.0193 76.1486 60.5999 78.801 58.2419 81.5085L57.4878 80.8517C59.8558 78.1327 62.2856 75.4689 64.775 72.8626ZM50.5752 89.1671L51.3587 89.7885C49.1295 92.5992 46.9637 95.4625 44.8635 98.3763L44.0523 97.7916C46.1614 94.8654 48.3364 91.9898 50.5752 89.1671ZM37.9333 106.707L38.7707 107.254C36.8103 110.257 34.9173 113.307 33.0938 116.403L32.2321 115.896C34.0634 112.786 35.9645 109.723 37.9333 106.707ZM26.9616 125.338L27.8458 125.805C26.1719 128.974 24.5689 132.187 23.0389 135.44L22.134 135.015C23.6705 131.747 25.2805 128.521 26.9616 125.338ZM17.7605 144.905L18.6842 145.288C17.3121 148.597 16.014 151.944 14.792 155.328L13.8514 154.989C15.0787 151.59 16.3824 148.228 17.7605 144.905ZM10.4156 165.244L11.3709 165.539C10.3132 168.959 9.33201 172.412 8.42945 175.897L7.46139 175.646C8.36785 172.146 9.35326 168.678 10.4156 165.244ZM4.99492 186.173C4.25712 189.687 3.59817 193.231 3.02 196.802L4.00714 196.962C4.58284 193.406 5.23896 189.878 5.97359 186.378L4.99492 186.173ZM1.53927 207.511L2.53274 207.625C2.1252 211.174 1.79739 214.748 1.55117 218.344L0.553506 218.276C0.800776 214.664 1.12998 211.075 1.53927 207.511ZM0.0616107 229.076C0.0206107 230.879 0 232.687 0 234.5C0 236.313 0.0206095 238.121 0.061607 239.924L1.06135 239.901C1.02052 238.106 1 236.305 1 234.5C1 232.695 1.02052 230.894 1.06135 229.099L0.0616107 229.076ZM0.553496 250.724L1.55116 250.655C1.79738 254.252 2.12518 257.826 2.53273 261.375L1.53925 261.489C1.12996 257.925 0.800763 254.335 0.553496 250.724ZM3.01998 272.198L4.00712 272.038C4.58281 275.594 5.23894 279.122 5.97356 282.622L4.9949 282.827C4.2571 279.313 3.59815 275.769 3.01998 272.198ZM7.46136 293.354L8.42942 293.103C9.33198 296.588 10.3131 300.041 11.3709 303.461L10.4156 303.756C9.35323 300.322 8.36782 296.854 7.46136 293.354ZM13.8514 314.011L14.7919 313.672C16.0139 317.055 17.3121 320.403 18.6842 323.712L17.7605 324.095C16.3824 320.772 15.0787 317.41 13.8514 314.011ZM22.1339 333.985L23.0389 333.56C24.5688 336.813 26.1718 340.026 27.8458 343.195L26.9615 343.662C25.2804 340.479 23.6705 337.253 22.1339 333.985ZM32.232 353.104L33.0937 352.597C34.9172 355.693 36.8102 358.743 38.7706 361.746L37.9333 362.293C35.9645 359.277 34.0634 356.214 32.232 353.104ZM44.0522 371.208L44.8635 370.624C46.9636 373.537 49.1294 376.401 51.3587 379.211L50.5752 379.833C48.3364 377.01 46.1614 374.135 44.0522 371.208ZM57.4877 388.148L58.2419 387.491C60.5998 390.199 63.0193 392.851 65.4981 395.447L64.7749 396.137C62.2855 393.531 59.8558 390.867 57.4877 388.148ZM72.4212 403.784L73.1118 403.06C75.7072 405.539 78.3596 407.959 81.0671 410.317L80.4103 411.071C77.6913 408.703 75.0275 406.273 72.4212 403.784ZM88.7257 417.983L89.3471 417.2C92.1578 419.429 95.0211 421.595 97.9349 423.695L97.3502 424.506C94.424 422.397 91.5484 420.222 88.7257 417.983ZM106.266 430.625L106.813 429.788C109.815 431.748 112.866 433.641 115.962 435.465L115.454 436.327C112.345 434.495 109.281 432.594 106.266 430.625ZM124.897 441.597L125.364 440.713C128.533 442.387 131.745 443.99 134.999 445.52L134.573 446.425C131.306 444.888 128.08 443.278 124.897 441.597ZM144.464 450.798L144.847 449.874C148.156 451.246 151.503 452.545 154.887 453.767L154.547 454.707C151.149 453.48 147.787 452.176 144.464 450.798ZM164.802 458.143L165.098 457.188C168.517 458.245 171.971 459.227 175.456 460.129L175.205 461.097C171.705 460.191 168.237 459.205 164.802 458.143ZM185.731 463.564L185.937 462.585C189.436 463.32 192.965 463.976 196.52 464.551L196.36 465.539C192.79 464.96 189.246 464.301 185.731 463.564ZM207.069 467.019L207.183 466.026C210.733 466.433 214.307 466.761 217.903 467.007L217.835 468.005C214.223 467.758 210.634 467.429 207.069 467.019ZM228.635 468.497L228.657 467.497C230.453 467.538 232.253 467.559 234.059 467.559C235.864 467.559 237.664 467.538 239.46 467.497L239.482 468.497C237.679 468.538 235.871 468.559 234.059 468.559C232.246 468.559 230.438 468.538 228.635 468.497ZM250.282 468.005L250.214 467.007C253.81 466.761 257.384 466.433 260.934 466.026L261.048 467.019C257.483 467.429 253.894 467.758 250.282 468.005ZM271.757 465.539L271.597 464.551C275.152 463.976 278.681 463.32 282.18 462.585L282.386 463.564C278.871 464.301 275.327 464.96 271.757 465.539ZM292.912 461.097L292.661 460.129C296.146 459.227 299.6 458.245 303.019 457.188L303.315 458.143C299.88 459.205 296.412 460.191 292.912 461.097ZM313.57 454.707L313.23 453.767C316.614 452.545 319.961 451.247 323.27 449.874L323.653 450.798C320.33 452.176 316.968 453.48 313.57 454.707ZM333.544 446.425L333.118 445.52C336.372 443.99 339.584 442.387 342.753 440.713L343.22 441.597C340.038 443.278 336.811 444.888 333.544 446.425ZM352.663 436.327L352.155 435.465C355.252 433.641 358.302 431.748 361.305 429.788L361.851 430.625C358.836 432.594 355.772 434.495 352.663 436.327ZM370.767 424.506L370.182 423.695C373.096 421.595 375.959 419.429 378.77 417.2L379.391 417.983C376.569 420.222 373.693 422.397 370.767 424.506ZM387.707 411.071L387.05 410.317C389.758 407.959 392.41 405.539 395.005 403.061L395.696 403.784C393.09 406.273 390.426 408.703 387.707 411.071ZM403.342 396.137L402.619 395.447C405.098 392.851 407.517 390.199 409.875 387.492L410.629 388.148C408.261 390.867 405.832 393.531 403.342 396.137ZM417.542 379.833L416.758 379.211C418.988 376.401 421.154 373.537 423.254 370.624L424.065 371.208C421.956 374.135 419.781 377.01 417.542 379.833ZM430.184 362.293L429.347 361.746C431.307 358.743 433.2 355.693 435.023 352.597L435.885 353.104C434.054 356.214 432.153 359.277 430.184 362.293ZM441.156 343.662L440.271 343.195C441.945 340.026 443.548 336.813 445.078 333.56L445.983 333.985C444.447 337.253 442.837 340.479 441.156 343.662ZM450.357 324.095L449.433 323.712C450.805 320.403 452.103 317.056 453.325 313.672L454.266 314.011C453.038 317.41 451.735 320.772 450.357 324.095ZM457.702 303.756L456.746 303.461C457.804 300.041 458.785 296.588 459.688 293.103L460.656 293.354C459.749 296.854 458.764 300.322 457.702 303.756ZM463.122 282.827L462.144 282.622C462.878 279.122 463.534 275.594 464.11 272.038L465.097 272.198C464.519 275.769 463.86 279.313 463.122 282.827ZM466.578 261.49L465.584 261.375C465.992 257.826 466.32 254.252 466.566 250.656L467.564 250.724C467.316 254.336 466.987 257.925 466.578 261.49Z" fill="#C2C2C2"/>
<path fill-rule="evenodd" clip-rule="evenodd" d="M840.188 239.924L839.189 239.901C839.229 238.106 839.25 236.305 839.25 234.5C839.25 232.695 839.229 230.894 839.189 229.099L840.188 229.076C840.229 230.879 840.25 232.687 840.25 234.5C840.25 236.313 840.229 238.121 840.188 239.924ZM839.697 218.276L838.699 218.345C838.453 214.748 838.125 211.174 837.717 207.625L838.711 207.511C839.12 211.075 839.449 214.665 839.697 218.276ZM837.23 196.802L836.243 196.962C835.667 193.406 835.011 189.878 834.276 186.378L835.255 186.173C835.993 189.687 836.652 193.231 837.23 196.802ZM832.789 175.646L831.821 175.897C830.918 172.412 829.937 168.959 828.879 165.539L829.834 165.244C830.897 168.678 831.882 172.146 832.789 175.646ZM826.399 154.989L825.458 155.328C824.236 151.945 822.938 148.597 821.566 145.288L822.49 144.905C823.868 148.228 825.171 151.59 826.399 154.989ZM818.116 135.015L817.211 135.44C815.681 132.187 814.078 128.974 812.404 125.805L813.288 125.338C814.97 128.521 816.579 131.747 818.116 135.015ZM808.018 115.896L807.156 116.403C805.333 113.307 803.44 110.257 801.479 107.254L802.317 106.707C804.285 109.723 806.187 112.786 808.018 115.896ZM796.198 97.7917L795.387 98.3764C793.286 95.4626 791.121 92.5993 788.891 89.7886L789.675 89.1672C791.914 91.9899 794.089 94.8654 796.198 97.7917ZM782.762 80.8518L782.008 81.5085C779.65 78.8011 777.231 76.1486 774.752 73.5533L775.475 72.8626C777.964 75.469 780.394 78.1328 782.762 80.8518ZM767.829 65.2164L767.138 65.9395C764.543 63.4607 761.89 61.0413 759.183 58.6833L759.84 57.9292C762.559 60.2972 765.222 62.727 767.829 65.2164ZM751.524 51.0167L750.903 51.8001C748.092 49.5709 745.229 47.4051 742.315 45.3049L742.9 44.4937C745.826 46.6028 748.702 48.7779 751.524 51.0167ZM733.984 38.3747L733.437 39.2121C730.435 37.2517 727.384 35.3587 724.288 33.5352L724.796 32.6735C727.905 34.5048 730.969 36.4059 733.984 38.3747ZM715.353 27.403L714.886 28.2872C711.717 26.6133 708.505 25.0103 705.251 23.4803L705.677 22.5754C708.944 24.1119 712.17 25.7219 715.353 27.403ZM695.786 18.2019L695.403 19.1257C692.094 17.7535 688.747 16.4554 685.363 15.2334L685.703 14.2928C689.101 15.5201 692.463 16.8238 695.786 18.2019ZM675.448 10.857L675.152 11.8124C671.733 10.7546 668.279 9.77342 664.794 8.87086L665.045 7.9028C668.545 8.80926 672.013 9.79467 675.448 10.857ZM654.519 5.43633C651.004 4.69853 647.46 4.03958 643.89 3.46141L643.73 4.44855C647.285 5.02424 650.814 5.68037 654.313 6.415L654.519 5.43633ZM633.181 1.98067L633.067 2.97415C629.517 2.5666 625.943 2.2388 622.347 1.99258L622.415 0.994913C626.027 1.24218 629.616 1.57138 633.181 1.98067ZM611.615 0.503017L611.593 1.50276C609.797 1.46193 607.997 1.44141 606.191 1.44141C604.386 1.44141 602.586 1.46193 600.79 1.50275L600.768 0.503013C602.571 0.462016 604.379 0.441406 606.191 0.441406C608.004 0.441406 609.812 0.462017 611.615 0.503017ZM589.968 0.994902L590.036 1.99257C586.44 2.23879 582.866 2.56659 579.316 2.97413L579.202 1.98066C582.767 1.57137 586.356 1.24217 589.968 0.994902ZM568.493 3.46139L568.653 4.44853C565.098 5.02422 561.569 5.68034 558.07 6.41497L557.864 5.4363C561.379 4.6985 564.923 4.03955 568.493 3.46139ZM547.338 7.90276L547.589 8.87082C544.104 9.77338 540.65 10.7546 537.231 11.8123L536.935 10.857C540.37 9.79463 543.838 8.80923 547.338 7.90276ZM526.68 14.2928L527.02 15.2333C523.636 16.4553 520.289 17.7535 516.98 19.1256L516.597 18.2019C519.92 16.8238 523.282 15.5201 526.68 14.2928ZM506.706 22.5753L507.132 23.4803C503.878 25.0102 500.666 26.6133 497.497 28.2872L497.03 27.4029C500.212 25.7218 503.439 24.1119 506.706 22.5753ZM487.587 32.6735L488.095 33.5351C484.998 35.3586 481.948 37.2516 478.945 39.212L478.399 38.3747C481.414 36.4059 484.478 34.5048 487.587 32.6735ZM469.483 44.4937L470.068 45.3049C467.154 47.405 464.291 49.5708 461.48 51.8001L460.859 51.0166C463.681 48.7778 466.557 46.6028 469.483 44.4937ZM452.543 57.9292L453.2 58.6833C450.492 61.0412 447.84 63.4607 445.245 65.9395L444.554 65.2163C447.16 62.727 449.824 60.2972 452.543 57.9292ZM436.908 72.8626L437.631 73.5532C435.152 76.1486 432.733 78.801 430.375 81.5085L429.621 80.8517C431.989 78.1327 434.418 75.4689 436.908 72.8626ZM422.708 89.1671L423.492 89.7885C421.262 92.5992 419.096 95.4625 416.996 98.3763L416.185 97.7916C418.294 94.8654 420.469 91.9898 422.708 89.1671ZM410.066 106.707L410.903 107.254C408.943 110.257 407.05 113.307 405.227 116.403L404.365 115.896C406.196 112.786 408.097 109.723 410.066 106.707ZM399.094 125.338L399.979 125.805C398.305 128.974 396.702 132.187 395.172 135.44L394.267 135.015C395.803 131.747 397.413 128.521 399.094 125.338ZM389.893 144.905L390.817 145.288C389.445 148.597 388.147 151.944 386.925 155.328L385.984 154.989C387.212 151.59 388.515 148.228 389.893 144.905ZM382.548 165.244L383.504 165.539C382.446 168.959 381.465 172.412 380.562 175.897L379.594 175.646C380.501 172.146 381.486 168.678 382.548 165.244ZM377.128 186.173C376.39 189.687 375.731 193.231 375.153 196.802L376.14 196.962C376.716 193.406 377.372 189.878 378.106 186.378L377.128 186.173ZM373.672 207.511L374.666 207.625C374.258 211.174 373.93 214.748 373.684 218.344L372.686 218.276C372.934 214.664 373.263 211.075 373.672 207.511ZM372.194 229.076C372.153 230.879 372.133 232.687 372.133 234.5C372.133 236.313 372.153 238.121 372.194 239.924L373.194 239.901C373.153 238.106 373.133 236.305 373.133 234.5C373.133 232.695 373.153 230.894 373.194 229.099L372.194 229.076ZM372.686 250.724L373.684 250.655C373.93 254.252 374.258 257.826 374.666 261.375L373.672 261.489C373.263 257.925 372.934 254.335 372.686 250.724ZM375.153 272.198L376.14 272.038C376.716 275.594 377.372 279.122 378.106 282.622L377.128 282.827C376.39 279.313 375.731 275.769 375.153 272.198ZM379.594 293.354L380.562 293.103C381.465 296.588 382.446 300.041 383.504 303.461L382.548 303.756C381.486 300.322 380.501 296.854 379.594 293.354ZM385.984 314.011L386.925 313.672C388.147 317.055 389.445 320.403 390.817 323.712L389.893 324.095C388.515 320.772 387.211 317.41 385.984 314.011ZM394.267 333.985L395.172 333.56C396.702 336.813 398.305 340.026 399.979 343.195L399.094 343.662C397.413 340.479 395.803 337.253 394.267 333.985ZM404.365 353.104L405.227 352.597C407.05 355.693 408.943 358.743 410.903 361.746L410.066 362.293C408.097 359.277 406.196 356.214 404.365 353.104ZM416.185 371.208L416.996 370.624C419.096 373.537 421.262 376.401 423.491 379.211L422.708 379.833C420.469 377.01 418.294 374.135 416.185 371.208ZM429.621 388.148L430.375 387.491C432.733 390.199 435.152 392.851 437.631 395.447L436.908 396.137C434.418 393.531 431.989 390.867 429.621 388.148ZM444.554 403.784L445.245 403.06C447.84 405.539 450.492 407.959 453.2 410.317L452.543 411.071C449.824 408.703 447.16 406.273 444.554 403.784ZM460.859 417.983L461.48 417.2C464.291 419.429 467.154 421.595 470.068 423.695L469.483 424.506C466.557 422.397 463.681 420.222 460.859 417.983ZM478.399 430.625L478.945 429.788C481.948 431.748 484.998 433.641 488.095 435.465L487.587 436.327C484.478 434.495 481.414 432.594 478.399 430.625ZM497.03 441.597L497.497 440.713C500.666 442.387 503.878 443.99 507.132 445.52L506.706 446.425C503.439 444.888 500.212 443.278 497.03 441.597ZM516.597 450.798L516.98 449.874C520.289 451.246 523.636 452.545 527.02 453.767L526.68 454.707C523.282 453.48 519.92 452.176 516.597 450.798ZM536.935 458.143L537.231 457.188C540.65 458.245 544.104 459.227 547.588 460.129L547.338 461.097C543.838 460.191 540.37 459.205 536.935 458.143ZM557.864 463.564L558.07 462.585C561.569 463.32 565.098 463.976 568.653 464.551L568.493 465.539C564.922 464.96 561.379 464.301 557.864 463.564ZM579.202 467.019L579.316 466.026C582.866 466.433 586.439 466.761 590.036 467.007L589.968 468.005C586.356 467.758 582.767 467.429 579.202 467.019ZM600.767 468.497L600.79 467.497C602.586 467.538 604.386 467.559 606.191 467.559C607.997 467.559 609.797 467.538 611.593 467.497L611.615 468.497C609.812 468.538 608.004 468.559 606.191 468.559C604.379 468.559 602.57 468.538 600.767 468.497ZM622.415 468.005L622.347 467.007C625.943 466.761 629.517 466.433 633.067 466.026L633.181 467.019C629.616 467.429 626.027 467.758 622.415 468.005ZM643.89 465.539L643.73 464.551C647.285 463.976 650.814 463.32 654.313 462.585L654.519 463.564C651.004 464.301 647.46 464.96 643.89 465.539ZM665.045 461.097L664.794 460.129C668.279 459.227 671.732 458.245 675.152 457.188L675.448 458.143C672.013 459.205 668.545 460.191 665.045 461.097ZM685.703 454.707L685.363 453.767C688.747 452.545 692.094 451.247 695.403 449.874L695.786 450.798C692.463 452.176 689.101 453.48 685.703 454.707ZM705.677 446.425L705.251 445.52C708.505 443.99 711.717 442.387 714.886 440.713L715.353 441.597C712.17 443.278 708.944 444.888 705.677 446.425ZM724.795 436.327L724.288 435.465C727.384 433.641 730.435 431.748 733.437 429.788L733.984 430.625C730.969 432.594 727.905 434.495 724.795 436.327ZM742.9 424.506L742.315 423.695C745.229 421.595 748.092 419.429 750.903 417.2L751.524 417.983C748.702 420.222 745.826 422.397 742.9 424.506ZM759.84 411.071L759.183 410.317C761.89 407.959 764.543 405.539 767.138 403.061L767.829 403.784C765.222 406.273 762.559 408.703 759.84 411.071ZM775.475 396.137L774.752 395.447C777.231 392.851 779.65 390.199 782.008 387.492L782.762 388.148C780.394 390.867 777.964 393.531 775.475 396.137ZM789.675 379.833L788.891 379.211C791.121 376.401 793.286 373.537 795.386 370.624L796.198 371.208C794.089 374.135 791.914 377.01 789.675 379.833ZM802.317 362.293L801.479 361.746C803.44 358.743 805.333 355.693 807.156 352.597L808.018 353.104C806.187 356.214 804.285 359.277 802.317 362.293ZM813.288 343.662L812.404 343.195C814.078 340.026 815.681 336.813 817.211 333.56L818.116 333.985C816.579 337.253 814.97 340.479 813.288 343.662ZM822.489 324.095L821.566 323.712C822.938 320.403 824.236 317.056 825.458 313.672L826.399 314.011C825.171 317.41 823.868 320.772 822.489 324.095ZM829.834 303.756L828.879 303.461C829.937 300.041 830.918 296.588 831.821 293.103L832.789 293.354C831.882 296.854 830.897 300.322 829.834 303.756ZM835.255 282.827L834.276 282.622C835.011 279.122 835.667 275.594 836.243 272.038L837.23 272.198C836.652 275.769 835.993 279.313 835.255 282.827ZM838.711 261.49L837.717 261.375C838.125 257.826 838.453 254.252 838.699 250.656L839.697 250.724C839.449 254.336 839.12 257.925 838.711 261.49Z" fill="#C2C2C2"/>
<path fill-rule="evenodd" clip-rule="evenodd" d="M1211.81 239.924L1210.81 239.901C1210.85 238.106 1210.88 236.305 1210.88 234.5C1210.88 232.695 1210.85 230.894 1210.81 229.099L1211.81 229.076C1211.85 230.879 1211.88 232.687 1211.88 234.5C1211.88 236.313 1211.85 238.121 1211.81 239.924ZM1211.32 218.276L1210.32 218.345C1210.08 214.748 1209.75 211.174 1209.34 207.625L1210.34 207.511C1210.75 211.075 1211.07 214.665 1211.32 218.276ZM1208.86 196.802L1207.87 196.962C1207.29 193.406 1206.64 189.878 1205.9 186.378L1206.88 186.173C1207.62 189.687 1208.28 193.231 1208.86 196.802ZM1204.41 175.646L1203.45 175.897C1202.54 172.412 1201.56 168.959 1200.5 165.539L1201.46 165.244C1202.52 168.678 1203.51 172.146 1204.41 175.646ZM1198.02 154.989L1197.08 155.328C1195.86 151.945 1194.56 148.597 1193.19 145.288L1194.11 144.905C1195.49 148.228 1196.8 151.59 1198.02 154.989ZM1189.74 135.015L1188.84 135.44C1187.31 132.187 1185.7 128.974 1184.03 125.805L1184.91 125.338C1186.59 128.521 1188.2 131.747 1189.74 135.015ZM1179.64 115.896L1178.78 116.403C1176.96 113.307 1175.06 110.257 1173.1 107.254L1173.94 106.707C1175.91 109.723 1177.81 112.786 1179.64 115.896ZM1167.82 97.7917L1167.01 98.3764C1164.91 95.4626 1162.75 92.5993 1160.52 89.7886L1161.3 89.1672C1163.54 91.9899 1165.71 94.8654 1167.82 97.7917ZM1154.39 80.8518L1153.63 81.5085C1151.28 78.8011 1148.86 76.1486 1146.38 73.5533L1147.1 72.8626C1149.59 75.469 1152.02 78.1328 1154.39 80.8518ZM1139.45 65.2164L1138.76 65.9395C1136.17 63.4607 1133.52 61.0413 1130.81 58.6833L1131.46 57.9292C1134.18 60.2972 1136.85 62.727 1139.45 65.2164ZM1123.15 51.0167L1122.53 51.8001C1119.72 49.5709 1116.85 47.4051 1113.94 45.3049L1114.52 44.4937C1117.45 46.6028 1120.33 48.7779 1123.15 51.0167ZM1105.61 38.3747L1105.06 39.2121C1102.06 37.2517 1099.01 35.3587 1095.91 33.5352L1096.42 32.6735C1099.53 34.5048 1102.59 36.4059 1105.61 38.3747ZM1086.98 27.403L1086.51 28.2872C1083.34 26.6133 1080.13 25.0103 1076.88 23.4803L1077.3 22.5754C1080.57 24.1119 1083.8 25.7219 1086.98 27.403ZM1067.41 18.2019L1067.03 19.1257C1063.72 17.7535 1060.37 16.4554 1056.99 15.2334L1057.33 14.2928C1060.73 15.5201 1064.09 16.8238 1067.41 18.2019ZM1047.07 10.857L1046.78 11.8124C1043.36 10.7546 1039.9 9.77342 1036.42 8.87086L1036.67 7.9028C1040.17 8.80926 1043.64 9.79467 1047.07 10.857ZM1026.14 5.43633C1022.63 4.69853 1019.09 4.03958 1015.51 3.46141L1015.35 4.44855C1018.91 5.02424 1022.44 5.68037 1025.94 6.415L1026.14 5.43633ZM1004.81 1.98067L1004.69 2.97415C1001.14 2.5666 997.568 2.2388 993.972 1.99258L994.04 0.994913C997.652 1.24218 1001.24 1.57138 1004.81 1.98067ZM983.24 0.503017L983.218 1.50276C981.422 1.46193 979.622 1.44141 977.816 1.44141C976.011 1.44141 974.211 1.46193 972.415 1.50275L972.393 0.503013C974.196 0.462016 976.004 0.441406 977.816 0.441406C979.629 0.441406 981.437 0.462017 983.24 0.503017ZM961.593 0.994902L961.661 1.99257C958.065 2.23879 954.491 2.56659 950.941 2.97413L950.827 1.98066C954.392 1.57137 957.981 1.24217 961.593 0.994902ZM940.118 3.46139L940.278 4.44853C936.723 5.02422 933.194 5.68034 929.695 6.41497L929.489 5.4363C933.004 4.6985 936.548 4.03955 940.118 3.46139ZM918.963 7.90276L919.214 8.87082C915.729 9.77338 912.275 10.7546 908.856 11.8123L908.56 10.857C911.995 9.79463 915.463 8.80923 918.963 7.90276ZM898.305 14.2928L898.645 15.2333C895.261 16.4553 891.914 17.7535 888.605 19.1256L888.222 18.2019C891.545 16.8238 894.907 15.5201 898.305 14.2928ZM878.331 22.5753L878.757 23.4803C875.503 25.0102 872.291 26.6133 869.122 28.2872L868.655 27.4029C871.837 25.7218 875.064 24.1119 878.331 22.5753ZM859.212 32.6735L859.72 33.5351C856.623 35.3586 853.573 37.2516 850.57 39.212L850.024 38.3747C853.039 36.4059 856.103 34.5048 859.212 32.6735ZM841.108 44.4937L841.693 45.3049C838.779 47.405 835.916 49.5708 833.105 51.8001L832.484 51.0166C835.306 48.7778 838.182 46.6028 841.108 44.4937ZM824.168 57.9292L824.825 58.6833C822.117 61.0412 819.465 63.4607 816.87 65.9395L816.179 65.2163C818.785 62.727 821.449 60.2972 824.168 57.9292ZM808.533 72.8626L809.256 73.5532C806.777 76.1486 804.358 78.801 802 81.5085L801.246 80.8517C803.614 78.1327 806.043 75.4689 808.533 72.8626ZM794.333 89.1671L795.117 89.7885C792.887 92.5992 790.721 95.4625 788.621 98.3763L787.81 97.7916C789.919 94.8654 792.094 91.9898 794.333 89.1671ZM781.691 106.707L782.528 107.254C780.568 110.257 778.675 113.307 776.852 116.403L775.99 115.896C777.821 112.786 779.722 109.723 781.691 106.707ZM770.719 125.338L771.604 125.805C769.93 128.974 768.327 132.187 766.797 135.44L765.892 135.015C767.428 131.747 769.038 128.521 770.719 125.338ZM761.518 144.905L762.442 145.288C761.07 148.597 759.772 151.944 758.55 155.328L757.609 154.989C758.837 151.59 760.14 148.228 761.518 144.905ZM754.173 165.244L755.129 165.539C754.071 168.959 753.09 172.412 752.187 175.897L751.219 175.646C752.126 172.146 753.111 168.678 754.173 165.244ZM748.753 186.173C748.015 189.687 747.356 193.231 746.778 196.802L747.765 196.962C748.341 193.406 748.997 189.878 749.731 186.378L748.753 186.173ZM745.297 207.511L746.291 207.625C745.883 211.174 745.555 214.748 745.309 218.344L744.311 218.276C744.559 214.664 744.888 211.075 745.297 207.511ZM743.819 229.076C743.778 230.879 743.758 232.687 743.758 234.5C743.758 236.313 743.778 238.121 743.819 239.924L744.819 239.901C744.778 238.106 744.758 236.305 744.758 234.5C744.758 232.695 744.778 230.894 744.819 229.099L743.819 229.076ZM744.311 250.724L745.309 250.655C745.555 254.252 745.883 257.826 746.291 261.375L745.297 261.489C744.888 257.925 744.559 254.335 744.311 250.724ZM746.778 272.198L747.765 272.038C748.341 275.594 748.997 279.122 749.731 282.622L748.753 282.827C748.015 279.313 747.356 275.769 746.778 272.198ZM751.219 293.354L752.187 293.103C753.09 296.588 754.071 300.041 755.129 303.461L754.173 303.756C753.111 300.322 752.126 296.854 751.219 293.354ZM757.609 314.011L758.55 313.672C759.772 317.055 761.07 320.403 762.442 323.712L761.518 324.095C760.14 320.772 758.836 317.41 757.609 314.011ZM765.892 333.985L766.797 333.56C768.327 336.813 769.93 340.026 771.604 343.195L770.719 343.662C769.038 340.479 767.428 337.253 765.892 333.985ZM775.99 353.104L776.852 352.597C778.675 355.693 780.568 358.743 782.528 361.746L781.691 362.293C779.722 359.277 777.821 356.214 775.99 353.104ZM787.81 371.208L788.621 370.624C790.721 373.537 792.887 376.401 795.116 379.211L794.333 379.833C792.094 377.01 789.919 374.135 787.81 371.208ZM801.246 388.148L802 387.491C804.358 390.199 806.777 392.851 809.256 395.447L808.533 396.137C806.043 393.531 803.614 390.867 801.246 388.148ZM816.179 403.784L816.87 403.06C819.465 405.539 822.117 407.959 824.825 410.317L824.168 411.071C821.449 408.703 818.785 406.273 816.179 403.784ZM832.484 417.983L833.105 417.2C835.916 419.429 838.779 421.595 841.693 423.695L841.108 424.506C838.182 422.397 835.306 420.222 832.484 417.983ZM850.024 430.625L850.57 429.788C853.573 431.748 856.623 433.641 859.72 435.465L859.212 436.327C856.103 434.495 853.039 432.594 850.024 430.625ZM868.655 441.597L869.122 440.713C872.291 442.387 875.503 443.99 878.757 445.52L878.331 446.425C875.064 444.888 871.837 443.278 868.655 441.597ZM888.222 450.798L888.605 449.874C891.914 451.246 895.261 452.545 898.645 453.767L898.305 454.707C894.907 453.48 891.545 452.176 888.222 450.798ZM908.56 458.143L908.856 457.188C912.275 458.245 915.729 459.227 919.213 460.129L918.963 461.097C915.463 460.191 911.995 459.205 908.56 458.143ZM929.489 463.564L929.695 462.585C933.194 463.32 936.723 463.976 940.278 464.551L940.118 465.539C936.547 464.96 933.004 464.301 929.489 463.564ZM950.827 467.019L950.941 466.026C954.491 466.433 958.064 466.761 961.661 467.007L961.593 468.005C957.981 467.758 954.392 467.429 950.827 467.019ZM972.392 468.497L972.415 467.497C974.211 467.538 976.011 467.559 977.816 467.559C979.622 467.559 981.422 467.538 983.218 467.497L983.24 468.497C981.437 468.538 979.629 468.559 977.816 468.559C976.004 468.559 974.195 468.538 972.392 468.497ZM994.04 468.005L993.972 467.007C997.568 466.761 1001.14 466.433 1004.69 466.026L1004.81 467.019C1001.24 467.429 997.652 467.758 994.04 468.005ZM1015.51 465.539L1015.35 464.551C1018.91 463.976 1022.44 463.32 1025.94 462.585L1026.14 463.564C1022.63 464.301 1019.09 464.96 1015.51 465.539ZM1036.67 461.097L1036.42 460.129C1039.9 459.227 1043.36 458.245 1046.78 457.188L1047.07 458.143C1043.64 459.205 1040.17 460.191 1036.67 461.097ZM1057.33 454.707L1056.99 453.767C1060.37 452.545 1063.72 451.247 1067.03 449.874L1067.41 450.798C1064.09 452.176 1060.73 453.48 1057.33 454.707ZM1077.3 446.425L1076.88 445.52C1080.13 443.99 1083.34 442.387 1086.51 440.713L1086.98 441.597C1083.8 443.278 1080.57 444.888 1077.3 446.425ZM1096.42 436.327L1095.91 435.465C1099.01 433.641 1102.06 431.748 1105.06 429.788L1105.61 430.625C1102.59 432.594 1099.53 434.495 1096.42 436.327ZM1114.52 424.506L1113.94 423.695C1116.85 421.595 1119.72 419.429 1122.53 417.2L1123.15 417.983C1120.33 420.222 1117.45 422.397 1114.52 424.506ZM1131.46 411.071L1130.81 410.317C1133.52 407.959 1136.17 405.539 1138.76 403.061L1139.45 403.784C1136.85 406.273 1134.18 408.703 1131.46 411.071ZM1147.1 396.137L1146.38 395.447C1148.86 392.851 1151.28 390.199 1153.63 387.492L1154.39 388.148C1152.02 390.867 1149.59 393.531 1147.1 396.137ZM1161.3 379.833L1160.52 379.211C1162.75 376.401 1164.91 373.537 1167.01 370.624L1167.82 371.208C1165.71 374.135 1163.54 377.01 1161.3 379.833ZM1173.94 362.293L1173.1 361.746C1175.06 358.743 1176.96 355.693 1178.78 352.597L1179.64 353.104C1177.81 356.214 1175.91 359.277 1173.94 362.293ZM1184.91 343.662L1184.03 343.195C1185.7 340.026 1187.31 336.813 1188.84 333.56L1189.74 333.985C1188.2 337.253 1186.59 340.479 1184.91 343.662ZM1194.11 324.095L1193.19 323.712C1194.56 320.403 1195.86 317.056 1197.08 313.672L1198.02 314.011C1196.8 317.41 1195.49 320.772 1194.11 324.095ZM1201.46 303.756L1200.5 303.461C1201.56 300.041 1202.54 296.588 1203.45 293.103L1204.41 293.354C1203.51 296.854 1202.52 300.322 1201.46 303.756ZM1206.88 282.827L1205.9 282.622C1206.64 279.122 1207.29 275.594 1207.87 272.038L1208.86 272.198C1208.28 275.769 1207.62 279.313 1206.88 282.827ZM1210.34 261.49L1209.34 261.375C1209.75 257.826 1210.08 254.252 1210.32 250.656L1211.32 250.724C1211.07 254.336 1210.75 257.925 1210.34 261.49Z" fill="#C2C2C2"/>
<path fill-rule="evenodd" clip-rule="evenodd" d="M1583.94 239.924L1582.94 239.901C1582.98 238.106 1583 236.305 1583 234.5C1583 232.695 1582.98 230.894 1582.94 229.099L1583.94 229.076C1583.98 230.879 1584 232.687 1584 234.5C1584 236.313 1583.98 238.121 1583.94 239.924ZM1583.45 218.276L1582.45 218.345C1582.2 214.748 1581.87 211.174 1581.47 207.625L1582.46 207.511C1582.87 211.075 1583.2 214.665 1583.45 218.276ZM1580.98 196.802L1579.99 196.962C1579.42 193.406 1578.76 189.878 1578.03 186.378L1579.01 186.173C1579.74 189.687 1580.4 193.231 1580.98 196.802ZM1576.54 175.646L1575.57 175.897C1574.67 172.412 1573.69 168.959 1572.63 165.539L1573.58 165.244C1574.65 168.678 1575.63 172.146 1576.54 175.646ZM1570.15 154.989L1569.21 155.328C1567.99 151.945 1566.69 148.597 1565.32 145.288L1566.24 144.905C1567.62 148.228 1568.92 151.59 1570.15 154.989ZM1561.87 135.015L1560.96 135.44C1559.43 132.187 1557.83 128.974 1556.15 125.805L1557.04 125.338C1558.72 128.521 1560.33 131.747 1561.87 135.015ZM1551.77 115.896L1550.91 116.403C1549.08 113.307 1547.19 110.257 1545.23 107.254L1546.07 106.707C1548.04 109.723 1549.94 112.786 1551.77 115.896ZM1539.95 97.7917L1539.14 98.3764C1537.04 95.4626 1534.87 92.5993 1532.64 89.7886L1533.42 89.1672C1535.66 91.9899 1537.84 94.8654 1539.95 97.7917ZM1526.51 80.8518L1525.76 81.5085C1523.4 78.8011 1520.98 76.1486 1518.5 73.5533L1519.23 72.8626C1521.71 75.469 1524.14 78.1328 1526.51 80.8518ZM1511.58 65.2164L1510.89 65.9395C1508.29 63.4607 1505.64 61.0413 1502.93 58.6833L1503.59 57.9292C1506.31 60.2972 1508.97 62.727 1511.58 65.2164ZM1495.27 51.0167L1494.65 51.8001C1491.84 49.5709 1488.98 47.4051 1486.07 45.3049L1486.65 44.4937C1489.58 46.6028 1492.45 48.7779 1495.27 51.0167ZM1477.73 38.3747L1477.19 39.2121C1474.18 37.2517 1471.13 35.3587 1468.04 33.5352L1468.55 32.6735C1471.66 34.5048 1474.72 36.4059 1477.73 38.3747ZM1459.1 27.403L1458.64 28.2872C1455.47 26.6133 1452.25 25.0103 1449 23.4803L1449.43 22.5754C1452.69 24.1119 1455.92 25.7219 1459.1 27.403ZM1439.54 18.2019L1439.15 19.1257C1435.84 17.7535 1432.5 16.4554 1429.11 15.2334L1429.45 14.2928C1432.85 15.5201 1436.21 16.8238 1439.54 18.2019ZM1419.2 10.857L1418.9 11.8124C1415.48 10.7546 1412.03 9.77342 1408.54 8.87086L1408.8 7.9028C1412.3 8.80926 1415.76 9.79467 1419.2 10.857ZM1398.27 5.43633C1394.75 4.69853 1391.21 4.03958 1387.64 3.46141L1387.48 4.44855C1391.04 5.02424 1394.56 5.68037 1398.06 6.415L1398.27 5.43633ZM1376.93 1.98067L1376.82 2.97415C1373.27 2.5666 1369.69 2.2388 1366.1 1.99258L1366.17 0.994913C1369.78 1.24218 1373.37 1.57138 1376.93 1.98067ZM1355.37 0.503017L1355.34 1.50276C1353.55 1.46193 1351.75 1.44141 1349.94 1.44141C1348.14 1.44141 1346.34 1.46193 1344.54 1.50275L1344.52 0.503013C1346.32 0.462016 1348.13 0.441406 1349.94 0.441406C1351.75 0.441406 1353.56 0.462017 1355.37 0.503017ZM1333.72 0.994902L1333.79 1.99257C1330.19 2.23879 1326.62 2.56659 1323.07 2.97413L1322.95 1.98066C1326.52 1.57137 1330.11 1.24217 1333.72 0.994902ZM1312.24 3.46139L1312.4 4.44853C1308.85 5.02422 1305.32 5.68034 1301.82 6.41497L1301.61 5.4363C1305.13 4.6985 1308.67 4.03955 1312.24 3.46139ZM1291.09 7.90276L1291.34 8.87082C1287.85 9.77338 1284.4 10.7546 1280.98 11.8123L1280.69 10.857C1284.12 9.79463 1287.59 8.80923 1291.09 7.90276ZM1270.43 14.2928L1270.77 15.2333C1267.39 16.4553 1264.04 17.7535 1260.73 19.1256L1260.35 18.2019C1263.67 16.8238 1267.03 15.5201 1270.43 14.2928ZM1250.46 22.5753L1250.88 23.4803C1247.63 25.0102 1244.42 26.6133 1241.25 28.2872L1240.78 27.4029C1243.96 25.7218 1247.19 24.1119 1250.46 22.5753ZM1231.34 32.6735L1231.84 33.5351C1228.75 35.3586 1225.7 37.2516 1222.7 39.212L1222.15 38.3747C1225.16 36.4059 1228.23 34.5048 1231.34 32.6735ZM1213.23 44.4937L1213.82 45.3049C1210.9 47.405 1208.04 49.5708 1205.23 51.8001L1204.61 51.0166C1207.43 48.7778 1210.31 46.6028 1213.23 44.4937ZM1196.29 57.9292L1196.95 58.6833C1194.24 61.0412 1191.59 63.4607 1188.99 65.9395L1188.3 65.2163C1190.91 62.727 1193.57 60.2972 1196.29 57.9292ZM1180.66 72.8626L1181.38 73.5532C1178.9 76.1486 1176.48 78.801 1174.12 81.5085L1173.37 80.8517C1175.74 78.1327 1178.17 75.4689 1180.66 72.8626ZM1166.46 89.1671L1167.24 89.7885C1165.01 92.5992 1162.85 95.4625 1160.75 98.3763L1159.94 97.7916C1162.04 94.8654 1164.22 91.9898 1166.46 89.1671ZM1153.82 106.707L1154.65 107.254C1152.69 110.257 1150.8 113.307 1148.98 116.403L1148.11 115.896C1149.95 112.786 1151.85 109.723 1153.82 106.707ZM1142.84 125.338L1143.73 125.805C1142.05 128.974 1140.45 132.187 1138.92 135.44L1138.02 135.015C1139.55 131.747 1141.16 128.521 1142.84 125.338ZM1133.64 144.905L1134.57 145.288C1133.19 148.597 1131.9 151.944 1130.67 155.328L1129.73 154.989C1130.96 151.59 1132.27 148.228 1133.64 144.905ZM1126.3 165.244L1127.25 165.539C1126.2 168.959 1125.21 172.412 1124.31 175.897L1123.34 175.646C1124.25 172.146 1125.24 168.678 1126.3 165.244ZM1120.88 186.173C1120.14 189.687 1119.48 193.231 1118.9 196.802L1119.89 196.962C1120.47 193.406 1121.12 189.878 1121.86 186.378L1120.88 186.173ZM1117.42 207.511L1118.42 207.625C1118.01 211.174 1117.68 214.748 1117.43 218.344L1116.44 218.276C1116.68 214.664 1117.01 211.075 1117.42 207.511ZM1115.94 229.076C1115.9 230.879 1115.88 232.687 1115.88 234.5C1115.88 236.313 1115.9 238.121 1115.94 239.924L1116.94 239.901C1116.9 238.106 1116.88 236.305 1116.88 234.5C1116.88 232.695 1116.9 230.894 1116.94 229.099L1115.94 229.076ZM1116.44 250.724L1117.43 250.655C1117.68 254.252 1118.01 257.826 1118.42 261.375L1117.42 261.489C1117.01 257.925 1116.68 254.335 1116.44 250.724ZM1118.9 272.198L1119.89 272.038C1120.47 275.594 1121.12 279.122 1121.86 282.622L1120.88 282.827C1120.14 279.313 1119.48 275.769 1118.9 272.198ZM1123.34 293.354L1124.31 293.103C1125.21 296.588 1126.2 300.041 1127.25 303.461L1126.3 303.756C1125.24 300.322 1124.25 296.854 1123.34 293.354ZM1129.73 314.011L1130.67 313.672C1131.9 317.055 1133.19 320.403 1134.57 323.712L1133.64 324.095C1132.27 320.772 1130.96 317.41 1129.73 314.011ZM1138.02 333.985L1138.92 333.56C1140.45 336.813 1142.05 340.026 1143.73 343.195L1142.84 343.662C1141.16 340.479 1139.55 337.253 1138.02 333.985ZM1148.11 353.104L1148.98 352.597C1150.8 355.693 1152.69 358.743 1154.65 361.746L1153.82 362.293C1151.85 359.277 1149.95 356.214 1148.11 353.104ZM1159.94 371.208L1160.75 370.624C1162.85 373.537 1165.01 376.401 1167.24 379.211L1166.46 379.833C1164.22 377.01 1162.04 374.135 1159.94 371.208ZM1173.37 388.148L1174.12 387.491C1176.48 390.199 1178.9 392.851 1181.38 395.447L1180.66 396.137C1178.17 393.531 1175.74 390.867 1173.37 388.148ZM1188.3 403.784L1188.99 403.06C1191.59 405.539 1194.24 407.959 1196.95 410.317L1196.29 411.071C1193.57 408.703 1190.91 406.273 1188.3 403.784ZM1204.61 417.983L1205.23 417.2C1208.04 419.429 1210.9 421.595 1213.82 423.695L1213.23 424.506C1210.31 422.397 1207.43 420.222 1204.61 417.983ZM1222.15 430.625L1222.7 429.788C1225.7 431.748 1228.75 433.641 1231.84 435.465L1231.34 436.327C1228.23 434.495 1225.16 432.594 1222.15 430.625ZM1240.78 441.597L1241.25 440.713C1244.42 442.387 1247.63 443.99 1250.88 445.52L1250.46 446.425C1247.19 444.888 1243.96 443.278 1240.78 441.597ZM1260.35 450.798L1260.73 449.874C1264.04 451.246 1267.39 452.545 1270.77 453.767L1270.43 454.707C1267.03 453.48 1263.67 452.176 1260.35 450.798ZM1280.69 458.143L1280.98 457.188C1284.4 458.245 1287.85 459.227 1291.34 460.129L1291.09 461.097C1287.59 460.191 1284.12 459.205 1280.69 458.143ZM1301.61 463.564L1301.82 462.585C1305.32 463.32 1308.85 463.976 1312.4 464.551L1312.24 465.539C1308.67 464.96 1305.13 464.301 1301.61 463.564ZM1322.95 467.019L1323.07 466.026C1326.62 466.433 1330.19 466.761 1333.79 467.007L1333.72 468.005C1330.11 467.758 1326.52 467.429 1322.95 467.019ZM1344.52 468.497L1344.54 467.497C1346.34 467.538 1348.14 467.559 1349.94 467.559C1351.75 467.559 1353.55 467.538 1355.34 467.497L1355.37 468.497C1353.56 468.538 1351.75 468.559 1349.94 468.559C1348.13 468.559 1346.32 468.538 1344.52 468.497ZM1366.17 468.005L1366.1 467.007C1369.69 466.761 1373.27 466.433 1376.82 466.026L1376.93 467.019C1373.37 467.429 1369.78 467.758 1366.17 468.005ZM1387.64 465.539L1387.48 464.551C1391.04 463.976 1394.56 463.32 1398.06 462.585L1398.27 463.564C1394.75 464.301 1391.21 464.96 1387.64 465.539ZM1408.79 461.097L1408.54 460.129C1412.03 459.227 1415.48 458.245 1418.9 457.188L1419.2 458.143C1415.76 459.205 1412.29 460.191 1408.79 461.097ZM1429.45 454.707L1429.11 453.767C1432.5 452.545 1435.84 451.247 1439.15 449.874L1439.54 450.798C1436.21 452.176 1432.85 453.48 1429.45 454.707ZM1449.43 446.425L1449 445.52C1452.25 443.99 1455.47 442.387 1458.64 440.713L1459.1 441.597C1455.92 443.278 1452.69 444.888 1449.43 446.425ZM1468.55 436.327L1468.04 435.465C1471.13 433.641 1474.18 431.748 1477.19 429.788L1477.73 430.625C1474.72 432.594 1471.66 434.495 1468.55 436.327ZM1486.65 424.506L1486.07 423.695C1488.98 421.595 1491.84 419.429 1494.65 417.2L1495.27 417.983C1492.45 420.222 1489.58 422.397 1486.65 424.506ZM1503.59 411.071L1502.93 410.317C1505.64 407.959 1508.29 405.539 1510.89 403.061L1511.58 403.784C1508.97 406.273 1506.31 408.703 1503.59 411.071ZM1519.23 396.137L1518.5 395.447C1520.98 392.851 1523.4 390.199 1525.76 387.492L1526.51 388.148C1524.14 390.867 1521.71 393.531 1519.23 396.137ZM1533.42 379.833L1532.64 379.211C1534.87 376.401 1537.04 373.537 1539.14 370.624L1539.95 371.208C1537.84 374.135 1535.66 377.01 1533.42 379.833ZM1546.07 362.293L1545.23 361.746C1547.19 358.743 1549.08 355.693 1550.91 352.597L1551.77 353.104C1549.94 356.214 1548.04 359.277 1546.07 362.293ZM1557.04 343.662L1556.15 343.195C1557.83 340.026 1559.43 336.813 1560.96 333.56L1561.87 333.985C1560.33 337.253 1558.72 340.479 1557.04 343.662ZM1566.24 324.095L1565.32 323.712C1566.69 320.403 1567.99 317.056 1569.21 313.672L1570.15 314.011C1568.92 317.41 1567.62 320.772 1566.24 324.095ZM1573.58 303.756L1572.63 303.461C1573.69 300.041 1574.67 296.588 1575.57 293.103L1576.54 293.354C1575.63 296.854 1574.65 300.322 1573.58 303.756ZM1579.01 282.827L1578.03 282.622C1578.76 279.122 1579.42 275.594 1579.99 272.038L1580.98 272.198C1580.4 275.769 1579.74 279.313 1579.01 282.827ZM1582.46 261.49L1581.47 261.375C1581.87 257.826 1582.2 254.252 1582.45 250.656L1583.45 250.724C1583.2 254.336 1582.87 257.925 1582.46 261.49Z" fill="#C2C2C2"/>
<path d="M149.994 242.22C153.47 242.22 155.78 240.086 155.78 237.358C155.78 234.212 153.866 233.156 150.17 232.65C147.442 232.254 146.914 231.616 146.914 230.34C146.914 229.13 147.838 228.272 149.62 228.272C151.424 228.272 152.37 228.976 152.656 230.626H155.34C155.032 227.612 153.008 226.072 149.62 226.072C146.342 226.072 144.142 228.008 144.142 230.582C144.142 233.53 145.924 234.674 149.686 235.18C152.238 235.598 152.964 236.148 152.964 237.6C152.964 239.052 151.732 240.02 149.994 240.02C147.332 240.02 146.694 238.7 146.496 237.116H143.68C143.9 240.086 145.704 242.22 149.994 242.22ZM161.869 242.198C162.683 242.198 163.255 242.066 163.673 241.912V239.8C163.299 239.954 162.903 240.02 162.375 240.02C161.539 240.02 161.055 239.558 161.055 238.546V232.496H163.585V230.494H161.055V227.964H158.393V230.494H156.853V232.496H158.393V238.788C158.393 240.966 159.581 242.198 161.869 242.198ZM170.694 242.22C173.642 242.22 175.6 240.9 175.974 238.48H173.4C173.202 239.602 172.366 240.24 170.76 240.24C168.78 240.24 167.68 239.008 167.592 236.83H176.018V236.06C176.018 231.946 173.444 230.252 170.584 230.252C167.306 230.252 164.864 232.628 164.864 236.192V236.368C164.864 239.998 167.306 242.22 170.694 242.22ZM167.636 235.048C167.9 233.266 168.978 232.188 170.584 232.188C172.234 232.188 173.246 233.068 173.378 235.048H167.636ZM178.418 242H181.08V232.496H183.698V230.494H181.08V228.844C181.08 227.854 181.52 227.15 182.598 227.15C183.082 227.15 183.5 227.238 183.808 227.348V225.28C183.324 225.126 182.928 225.06 182.29 225.06C179.826 225.06 178.418 226.424 178.418 228.954V230.494H176.856V232.496H178.418V242ZM185.486 242H188.148V235.224C188.148 233.398 189.358 232.474 190.854 232.474C192.438 232.474 193.142 233.266 193.142 235.004V242H195.804V234.762C195.804 231.594 194.176 230.252 191.866 230.252C189.974 230.252 188.698 231.198 188.148 232.32V230.494H185.486V242ZM202.281 242.22C204.151 242.22 205.361 241.318 205.933 240.196V242H208.595V230.494H205.933V237.336C205.933 239.162 204.679 240.086 203.249 240.086C201.709 240.086 200.983 239.294 200.983 237.556V230.494H198.321V237.864C198.321 240.922 200.015 242.22 202.281 242.22ZM211.312 242H213.974V235.114C213.974 233.354 215.184 232.474 216.504 232.474C217.802 232.474 218.55 233.2 218.55 234.894V242H221.212V235.114C221.212 233.354 222.422 232.474 223.742 232.474C225.062 232.474 225.788 233.2 225.788 234.894V242H228.45V234.718C228.45 231.55 226.734 230.252 224.622 230.252C223.192 230.252 221.608 230.89 220.728 232.32C220.156 230.89 218.968 230.252 217.472 230.252C215.778 230.252 214.524 231.176 213.974 232.254V230.494H211.312V242ZM235.093 228.778H237.051L239.339 225.368H236.391L235.093 228.778ZM236.215 240.152C234.191 240.152 233.025 238.678 233.025 236.324V236.148C233.025 233.772 234.235 232.342 236.215 232.342C238.195 232.342 239.383 233.794 239.383 236.17V236.324C239.383 238.678 238.195 240.152 236.215 240.152ZM236.193 242.22C239.581 242.22 242.111 239.888 242.111 236.302V236.126C242.111 232.606 239.581 230.252 236.215 230.252C232.827 230.252 230.297 232.628 230.297 236.192V236.368C230.297 239.866 232.805 242.22 236.193 242.22ZM247.992 242.198C248.806 242.198 249.378 242.066 249.796 241.912V239.8C249.422 239.954 249.026 240.02 248.498 240.02C247.662 240.02 247.178 239.558 247.178 238.546V232.496H249.708V230.494H247.178V227.964H244.516V230.494H242.976V232.496H244.516V238.788C244.516 240.966 245.704 242.198 247.992 242.198ZM255.607 242.22C257.477 242.22 258.687 241.318 259.259 240.196V242H261.921V230.494H259.259V237.336C259.259 239.162 258.005 240.086 256.575 240.086C255.035 240.086 254.309 239.294 254.309 237.556V230.494H251.647V237.864C251.647 240.922 253.341 242.22 255.607 242.22ZM264.637 242H267.299V235.224C267.299 233.398 268.509 232.474 270.005 232.474C271.589 232.474 272.293 233.266 272.293 235.004V242H274.955V234.762C274.955 231.594 273.327 230.252 271.017 230.252C269.125 230.252 267.849 231.198 267.299 232.32V230.494H264.637V242Z" fill="#111111"/>
<path d="M521.944 242.441H524.606V230.385L531.69 242.441H534.726V226.711H532.064V238.085L525.442 226.711H521.944V242.441ZM542.717 240.593C540.693 240.593 539.527 239.119 539.527 236.765V236.589C539.527 234.213 540.737 232.783 542.717 232.783C544.697 232.783 545.885 234.235 545.885 236.611V236.765C545.885 239.119 544.697 240.593 542.717 240.593ZM542.695 242.661C546.083 242.661 548.613 240.329 548.613 236.743V236.567C548.613 233.047 546.083 230.693 542.717 230.693C539.329 230.693 536.799 233.069 536.799 236.633V236.809C536.799 240.307 539.307 242.661 542.695 242.661ZM554.494 242.639C555.308 242.639 555.88 242.507 556.298 242.353V240.241C555.924 240.395 555.528 240.461 555 240.461C554.164 240.461 553.68 239.999 553.68 238.987V232.937H556.21V230.935H553.68V228.405H551.018V230.935H549.478V232.937H551.018V239.229C551.018 241.407 552.206 242.639 554.494 242.639ZM563.32 242.661C566.268 242.661 568.226 241.341 568.6 238.921H566.026C565.828 240.043 564.992 240.681 563.386 240.681C561.406 240.681 560.306 239.449 560.218 237.271H568.644V236.501C568.644 232.387 566.07 230.693 563.21 230.693C559.932 230.693 557.49 233.069 557.49 236.633V236.809C557.49 240.439 559.932 242.661 563.32 242.661ZM560.262 235.489C560.526 233.707 561.604 232.629 563.21 232.629C564.86 232.629 565.872 233.509 566.004 235.489H560.262ZM570.581 242.441H573.243V235.665C573.243 233.839 574.453 232.915 575.949 232.915C577.533 232.915 578.237 233.707 578.237 235.445V242.441H580.899V235.203C580.899 232.035 579.271 230.693 576.961 230.693C575.069 230.693 573.793 231.639 573.243 232.761V230.935H570.581V242.441ZM587.838 242.661C589.532 242.661 591.006 241.649 591.622 240.505V242.441H594.284V225.611H591.622V232.695C590.984 231.551 589.818 230.693 587.948 230.693C584.956 230.693 582.778 233.025 582.778 236.699V236.875C582.778 240.615 584.956 242.661 587.838 242.661ZM588.498 240.549C586.782 240.549 585.506 239.339 585.506 236.809V236.633C585.506 234.147 586.65 232.783 588.608 232.783C590.544 232.783 591.71 234.037 591.71 236.567V236.743C591.71 239.317 590.346 240.549 588.498 240.549ZM600.022 242.661C601.782 242.661 602.794 242.023 603.542 241.033V242.441H606.16V234.895C606.16 231.749 604.136 230.693 601.562 230.693C598.988 230.693 596.854 231.815 596.634 234.499H599.208C599.34 233.355 600.022 232.695 601.408 232.695C602.97 232.695 603.498 233.465 603.498 235.005V235.599H602.068C598.768 235.599 596.172 236.567 596.172 239.251C596.172 241.649 597.91 242.661 600.022 242.661ZM600.66 240.747C599.34 240.747 598.812 240.109 598.812 239.141C598.812 237.733 600.11 237.271 602.134 237.271H603.498V238.415C603.498 239.889 602.288 240.747 600.66 240.747ZM612.621 242.661C614.491 242.661 615.701 241.759 616.273 240.637V242.441H618.935V230.935H616.273V237.777C616.273 239.603 615.019 240.527 613.589 240.527C612.049 240.527 611.323 239.735 611.323 237.997V230.935H608.661V238.305C608.661 241.363 610.355 242.661 612.621 242.661ZM621.651 246.379H624.313V240.637C624.929 241.759 626.249 242.661 628.075 242.661C631.045 242.661 633.179 240.417 633.179 236.721V236.545C633.179 232.827 630.957 230.693 628.075 230.693C626.381 230.693 624.951 231.683 624.313 232.783V230.935H621.651V246.379ZM627.415 240.549C625.479 240.549 624.225 239.339 624.225 236.765V236.589C624.225 234.037 625.545 232.783 627.393 232.783C629.131 232.783 630.451 234.037 630.451 236.589V236.765C630.451 239.229 629.373 240.549 627.415 240.549ZM635.133 246.379H637.795V240.637C638.411 241.759 639.731 242.661 641.557 242.661C644.527 242.661 646.661 240.417 646.661 236.721V236.545C646.661 232.827 644.439 230.693 641.557 230.693C639.863 230.693 638.433 231.683 637.795 232.783V230.935H635.133V246.379ZM640.897 240.549C638.961 240.549 637.707 239.339 637.707 236.765V236.589C637.707 234.037 639.027 232.783 640.875 232.783C642.613 232.783 643.933 234.037 643.933 236.589V236.765C643.933 239.229 642.855 240.549 640.897 240.549ZM648.681 242.441H651.343V225.611H648.681V242.441ZM654.214 242.441H656.876V230.935H654.214V242.441ZM655.512 229.043C656.392 229.043 657.096 228.383 657.096 227.525C657.096 226.645 656.392 225.985 655.512 225.985C654.632 225.985 653.928 226.645 653.928 227.525C653.928 228.383 654.632 229.043 655.512 229.043ZM660.142 242.441H662.804V232.937H665.422V230.935H662.804V229.285C662.804 228.295 663.244 227.591 664.322 227.591C664.806 227.591 665.224 227.679 665.532 227.789V225.721C665.048 225.567 664.652 225.501 664.014 225.501C661.55 225.501 660.142 226.865 660.142 229.395V230.935H658.58V232.937H660.142V242.441ZM671.061 242.661C672.931 242.661 674.141 241.759 674.713 240.637V242.441H677.375V230.935H674.713V237.777C674.713 239.603 673.459 240.527 672.029 240.527C670.489 240.527 669.763 239.735 669.763 237.997V230.935H667.101V238.305C667.101 241.363 668.795 242.661 671.061 242.661ZM680.091 242.441H682.753V235.665C682.753 233.839 683.963 232.915 685.459 232.915C687.043 232.915 687.747 233.707 687.747 235.445V242.441H690.409V235.203C690.409 232.035 688.781 230.693 686.471 230.693C684.579 230.693 683.303 231.639 682.753 232.761V230.935H680.091V242.441Z" fill="#111111"/>
<path d="M899.939 242.661C903.415 242.661 905.725 240.527 905.725 237.799C905.725 234.653 903.811 233.597 900.115 233.091C897.387 232.695 896.859 232.057 896.859 230.781C896.859 229.571 897.783 228.713 899.565 228.713C901.369 228.713 902.315 229.417 902.601 231.067H905.285C904.977 228.053 902.953 226.513 899.565 226.513C896.287 226.513 894.087 228.449 894.087 231.023C894.087 233.971 895.869 235.115 899.631 235.621C902.183 236.039 902.909 236.589 902.909 238.041C902.909 239.493 901.677 240.461 899.939 240.461C897.277 240.461 896.639 239.141 896.441 237.557H893.625C893.845 240.527 895.649 242.661 899.939 242.661ZM906.38 246.577C909.57 246.533 910.626 245.169 910.626 242.837V230.935H907.964V242.903C907.964 243.871 907.546 244.443 906.38 244.531V246.577ZM909.262 229.043C910.142 229.043 910.846 228.383 910.846 227.525C910.846 226.645 910.142 225.985 909.262 225.985C908.382 225.985 907.678 226.645 907.678 227.525C907.678 228.383 908.382 229.043 909.262 229.043ZM917.457 229.219H919.415L921.703 225.809H918.755L917.457 229.219ZM918.579 240.593C916.555 240.593 915.389 239.119 915.389 236.765V236.589C915.389 234.213 916.599 232.783 918.579 232.783C920.559 232.783 921.747 234.235 921.747 236.611V236.765C921.747 239.119 920.559 240.593 918.579 240.593ZM918.557 242.661C921.945 242.661 924.475 240.329 924.475 236.743V236.567C924.475 233.047 921.945 230.693 918.579 230.693C915.191 230.693 912.661 233.069 912.661 236.633V236.809C912.661 240.307 915.169 242.661 918.557 242.661ZM926.44 242.441H929.102V235.665C929.102 233.839 930.312 232.915 931.808 232.915C933.392 232.915 934.096 233.707 934.096 235.445V242.441H936.758V235.203C936.758 232.035 935.13 230.693 932.82 230.693C930.928 230.693 929.652 231.639 929.102 232.761V230.935H926.44V242.441ZM939.385 242.441H942.047V236.457C942.047 234.015 943.455 233.267 945.787 233.245V230.759C943.851 230.781 942.773 231.639 942.047 233.091V230.935H939.385V242.441ZM959.53 242.661C962.368 242.661 964.282 241.341 964.656 238.921H962.104C961.906 240.043 961.092 240.681 959.552 240.681C957.638 240.681 956.626 239.427 956.538 237.227H964.722V236.501C964.722 232.343 962.192 230.693 959.42 230.693C957.814 230.693 956.516 231.309 955.614 232.365C954.91 231.155 953.612 230.693 951.962 230.693C949.454 230.693 947.32 231.815 947.1 234.499H949.674C949.806 233.333 950.51 232.695 951.896 232.695C953.392 232.695 953.986 233.465 953.986 235.005V235.533H952.49C949.19 235.533 946.638 236.567 946.638 239.251C946.638 241.649 948.42 242.661 950.642 242.661C952.82 242.661 954.14 241.935 955.152 240.461C956.054 241.869 957.55 242.661 959.53 242.661ZM951.148 240.747C949.806 240.747 949.278 240.109 949.278 239.097C949.278 237.689 950.576 237.249 952.556 237.249H953.986V238.415C953.986 239.889 952.798 240.747 951.148 240.747ZM956.582 235.533C956.824 233.729 957.88 232.629 959.42 232.629C961.004 232.629 961.928 233.509 962.082 235.533H956.582ZM966.628 242.441H969.29V235.665C969.29 233.839 970.5 232.915 971.996 232.915C973.58 232.915 974.284 233.707 974.284 235.445V242.441H976.946V235.203C976.946 232.035 975.318 230.693 973.008 230.693C971.116 230.693 969.84 231.639 969.29 232.761V230.935H966.628V242.441ZM984.375 242.441H987.037V235.665C987.037 233.839 988.247 232.915 989.743 232.915C991.327 232.915 992.031 233.707 992.031 235.445V242.441H994.693V235.203C994.693 232.035 993.065 230.693 990.755 230.693C988.863 230.693 987.587 231.639 987.037 232.761V225.611H984.375V242.441ZM1000.27 228.955C1001.06 228.955 1001.72 228.317 1001.72 227.525C1001.72 226.755 1001.06 226.095 1000.27 226.095C999.475 226.095 998.815 226.755 998.815 227.525C998.815 228.317 999.475 228.955 1000.27 228.955ZM1004.62 228.955C1005.42 228.955 1006.08 228.317 1006.08 227.525C1006.08 226.755 1005.42 226.095 1004.62 226.095C1003.81 226.095 1003.17 226.755 1003.17 227.525C1003.17 228.317 1003.81 228.955 1004.62 228.955ZM1002.47 240.593C1000.44 240.593 999.277 239.119 999.277 236.765V236.589C999.277 234.213 1000.49 232.783 1002.47 232.783C1004.45 232.783 1005.64 234.235 1005.64 236.611V236.765C1005.64 239.119 1004.45 240.593 1002.47 240.593ZM1002.45 242.661C1005.83 242.661 1008.36 240.329 1008.36 236.743V236.567C1008.36 233.047 1005.83 230.693 1002.47 230.693C999.079 230.693 996.549 233.069 996.549 236.633V236.809C996.549 240.307 999.057 242.661 1002.45 242.661ZM1010.33 242.441H1012.99V235.665C1012.99 233.839 1014.2 232.915 1015.7 232.915C1017.28 232.915 1017.98 233.707 1017.98 235.445V242.441H1020.65V235.203C1020.65 232.035 1019.02 230.693 1016.71 230.693C1014.82 230.693 1013.54 231.639 1012.99 232.761V230.935H1010.33V242.441ZM1023.27 242.441H1025.94V235.665C1025.94 233.839 1027.15 232.915 1028.64 232.915C1030.23 232.915 1030.93 233.707 1030.93 235.445V242.441H1033.59V235.203C1033.59 232.035 1031.96 230.693 1029.65 230.693C1027.76 230.693 1026.49 231.639 1025.94 232.761V230.935H1023.27V242.441ZM1040.07 242.661C1041.94 242.661 1043.15 241.759 1043.72 240.637V242.441H1046.38V230.935H1043.72V237.777C1043.72 239.603 1042.47 240.527 1041.04 240.527C1039.5 240.527 1038.77 239.735 1038.77 237.997V230.935H1036.11V238.305C1036.11 241.363 1037.8 242.661 1040.07 242.661ZM1049.1 242.441H1051.76V235.665C1051.76 233.839 1052.97 232.915 1054.47 232.915C1056.05 232.915 1056.75 233.707 1056.75 235.445V242.441H1059.42V235.203C1059.42 232.035 1057.79 230.693 1055.48 230.693C1053.59 230.693 1052.31 231.639 1051.76 232.761V230.935H1049.1V242.441Z" fill="#111111"/>
<path d="M1285.92 242H1288.85V235.312H1295.91V242H1298.86V226.27H1295.91V232.958H1288.85V226.27H1285.92V242ZM1305.53 242.22C1307.4 242.22 1308.61 241.318 1309.18 240.196V242H1311.84V230.494H1309.18V237.336C1309.18 239.162 1307.92 240.086 1306.49 240.086C1304.95 240.086 1304.23 239.294 1304.23 237.556V230.494H1301.57V237.864C1301.57 240.922 1303.26 242.22 1305.53 242.22ZM1319.46 246.224C1323.03 246.224 1325.29 244.53 1325.31 241.142V230.494H1322.65V232.254C1321.99 231.11 1320.85 230.252 1318.96 230.252C1315.99 230.252 1313.79 232.672 1313.79 235.906V236.06C1313.79 239.382 1316.01 241.538 1318.89 241.538C1320.58 241.538 1322.01 240.504 1322.65 239.404V241.098C1322.65 243.166 1321.51 244.2 1319.44 244.2C1317.7 244.2 1316.82 243.54 1316.6 242.396H1313.92C1314.23 244.596 1315.85 246.224 1319.46 246.224ZM1319.55 239.492C1317.83 239.492 1316.51 238.172 1316.51 236.038V235.862C1316.51 233.772 1317.66 232.342 1319.64 232.342C1321.55 232.342 1322.74 233.64 1322.74 235.818V235.972C1322.74 238.172 1321.4 239.492 1319.55 239.492ZM1334.46 242.22C1337.43 242.22 1339.57 239.976 1339.57 236.28V236.104C1339.57 232.386 1337.34 230.252 1334.46 230.252C1332.77 230.252 1331.34 231.242 1330.7 232.342V225.17H1328.04V242H1330.7V240.152C1331.32 241.318 1332.64 242.22 1334.46 242.22ZM1333.8 240.108C1331.87 240.108 1330.61 238.898 1330.61 236.324V236.148C1330.61 233.596 1331.93 232.342 1333.78 232.342C1335.52 232.342 1336.84 233.596 1336.84 236.148V236.324C1336.84 238.788 1335.76 240.108 1333.8 240.108ZM1345.48 228.778H1347.44L1349.73 225.368H1346.78L1345.48 228.778ZM1345.37 242.22C1347.24 242.22 1348.45 241.318 1349.02 240.196V242H1351.68V230.494H1349.02V237.336C1349.02 239.162 1347.77 240.086 1346.34 240.086C1344.8 240.086 1344.07 239.294 1344.07 237.556V230.494H1341.41V237.864C1341.41 240.922 1343.1 242.22 1345.37 242.22ZM1354.4 242H1357.06V235.224C1357.06 233.398 1358.27 232.474 1359.77 232.474C1361.35 232.474 1362.06 233.266 1362.06 235.004V242H1364.72V234.762C1364.72 231.594 1363.09 230.252 1360.78 230.252C1358.89 230.252 1357.61 231.198 1357.06 232.32V230.494H1354.4V242ZM1370.36 242.22C1372.12 242.22 1373.13 241.582 1373.88 240.592V242H1376.5V234.454C1376.5 231.308 1374.47 230.252 1371.9 230.252C1369.32 230.252 1367.19 231.374 1366.97 234.058H1369.54C1369.68 232.914 1370.36 232.254 1371.74 232.254C1373.31 232.254 1373.83 233.024 1373.83 234.564V235.158H1372.4C1369.1 235.158 1366.51 236.126 1366.51 238.81C1366.51 241.208 1368.25 242.22 1370.36 242.22ZM1371 240.306C1369.68 240.306 1369.15 239.668 1369.15 238.7C1369.15 237.292 1370.45 236.83 1372.47 236.83H1373.83V237.974C1373.83 239.448 1372.62 240.306 1371 240.306ZM1381.22 229.548L1383.93 228.25C1384.98 229.284 1385.88 230.428 1386.5 231.66C1385.77 230.846 1384.89 230.318 1383.55 230.318C1380.82 230.318 1378.34 232.606 1378.34 236.082V236.302C1378.34 239.844 1380.82 242.22 1384.21 242.22C1387.69 242.22 1390.15 239.756 1390.15 236.06V235.576C1390.15 232.034 1388.17 229.152 1386.08 227.216L1387.6 226.468L1387.01 225.28L1384.96 226.27C1384.39 225.808 1383.82 225.456 1383.31 225.17H1380.16C1381.04 225.786 1381.99 226.49 1382.89 227.282L1380.63 228.36L1381.22 229.548ZM1384.26 240.152C1382.25 240.152 1381.07 238.678 1381.07 236.324V236.148C1381.07 233.772 1382.3 232.342 1384.28 232.342C1386.24 232.342 1387.42 233.794 1387.42 236.17V236.346C1387.42 238.656 1386.24 240.152 1384.26 240.152ZM1395.13 242.22C1396.89 242.22 1397.9 241.582 1398.65 240.592V242H1401.27V234.454C1401.27 231.308 1399.24 230.252 1396.67 230.252C1394.1 230.252 1391.96 231.374 1391.74 234.058H1394.32C1394.45 232.914 1395.13 232.254 1396.52 232.254C1398.08 232.254 1398.61 233.024 1398.61 234.564V235.158H1397.18C1393.88 235.158 1391.28 236.126 1391.28 238.81C1391.28 241.208 1393.02 242.22 1395.13 242.22ZM1395.77 240.306C1394.45 240.306 1393.92 239.668 1393.92 238.7C1393.92 237.292 1395.22 236.83 1397.24 236.83H1398.61V237.974C1398.61 239.448 1397.4 240.306 1395.77 240.306ZM1403.88 242H1406.54V236.016C1406.54 233.574 1407.95 232.826 1410.28 232.804V230.318C1408.35 230.34 1407.27 231.198 1406.54 232.65V230.494H1403.88V242ZM1416.88 246.224C1420.44 246.224 1422.71 244.53 1422.73 241.142V230.494H1420.07V232.254C1419.41 231.11 1418.26 230.252 1416.37 230.252C1413.4 230.252 1411.2 232.672 1411.2 235.906V236.06C1411.2 239.382 1413.42 241.538 1416.3 241.538C1418 241.538 1419.43 240.504 1420.07 239.404V241.098C1420.07 243.166 1418.92 244.2 1416.85 244.2C1415.12 244.2 1414.24 243.54 1414.02 242.396H1411.33C1411.64 244.596 1413.27 246.224 1416.88 246.224ZM1416.96 239.492C1415.25 239.492 1413.93 238.172 1413.93 236.038V235.862C1413.93 233.772 1415.07 232.342 1417.05 232.342C1418.97 232.342 1420.15 233.64 1420.15 235.818V235.972C1420.15 238.172 1418.81 239.492 1416.96 239.492ZM1430.51 242.22C1433.46 242.22 1435.42 240.9 1435.79 238.48H1433.22C1433.02 239.602 1432.18 240.24 1430.58 240.24C1428.6 240.24 1427.5 239.008 1427.41 236.83H1435.84V236.06C1435.84 231.946 1433.26 230.252 1430.4 230.252C1427.12 230.252 1424.68 232.628 1424.68 236.192V236.368C1424.68 239.998 1427.12 242.22 1430.51 242.22ZM1427.45 235.048C1427.72 233.266 1428.8 232.188 1430.4 232.188C1432.05 232.188 1433.06 233.068 1433.2 235.048H1427.45ZM1437.77 242H1440.43V236.016C1440.43 233.574 1441.84 232.826 1444.17 232.804V230.318C1442.24 230.34 1441.16 231.198 1440.43 232.65V230.494H1437.77V242ZM1447.97 229.548L1450.68 228.25C1451.74 229.284 1452.64 230.428 1453.25 231.66C1452.53 230.846 1451.65 230.318 1450.31 230.318C1447.58 230.318 1445.09 232.606 1445.09 236.082V236.302C1445.09 239.844 1447.58 242.22 1450.97 242.22C1454.44 242.22 1456.91 239.756 1456.91 236.06V235.576C1456.91 232.034 1454.93 229.152 1452.84 227.216L1454.35 226.468L1453.76 225.28L1451.71 226.27C1451.14 225.808 1450.57 225.456 1450.06 225.17H1446.92C1447.8 225.786 1448.74 226.49 1449.65 227.282L1447.38 228.36L1447.97 229.548ZM1451.01 240.152C1449.01 240.152 1447.82 238.678 1447.82 236.324V236.148C1447.82 233.772 1449.05 232.342 1451.03 232.342C1452.99 232.342 1454.18 233.794 1454.18 236.17V236.346C1454.18 238.656 1452.99 240.152 1451.01 240.152Z" fill="#111111"/>
</svg>
