<svg width="350" height="350" viewBox="0 0 350 350" fill="none" xmlns="http://www.w3.org/2000/svg">
<path fill-rule="evenodd" clip-rule="evenodd" d="M194.995 99.77L194.579 99.7605C194.596 99.0125 194.604 98.2624 194.604 97.5104C194.604 96.7583 194.596 96.0082 194.579 95.2602L194.995 95.2508C195.012 96.0019 195.021 96.7551 195.021 97.5104C195.021 98.2656 195.012 99.0188 194.995 99.77ZM194.79 90.7514L194.375 90.7799C194.272 89.2816 194.135 87.7927 193.966 86.3139L194.379 86.2664C194.55 87.7515 194.687 89.2468 194.79 90.7514ZM193.763 81.8051L193.351 81.8717C193.112 80.3904 192.838 78.9205 192.532 77.4625L192.94 77.3769C193.247 78.8412 193.522 80.3175 193.763 81.8051ZM191.912 72.9916L191.509 73.0961C191.133 71.6442 190.724 70.2056 190.284 68.7809L190.682 68.6578C191.124 70.0886 191.535 71.5335 191.912 72.9916ZM189.25 64.3854L188.858 64.5269C188.349 63.1172 187.808 61.7227 187.237 60.3442L187.622 60.1846C188.196 61.5691 188.739 62.9696 189.25 64.3854ZM185.8 56.0642L185.423 56.2415C184.785 54.886 184.117 53.5477 183.42 52.2274L183.788 52.0329C184.489 53.3588 185.159 54.7029 185.8 56.0642ZM181.593 48.0991C180.83 46.8036 180.038 45.5273 179.217 44.2711L178.869 44.4989C179.685 45.7497 180.474 47.0206 181.234 48.3105L181.593 48.0991ZM176.668 40.5568L176.33 40.8004C175.455 39.5865 174.553 38.3936 173.624 37.2226L173.951 36.9638C174.883 38.1397 175.79 39.3377 176.668 40.5568ZM171.071 33.4995L170.757 33.7731C169.774 32.6452 168.766 31.5401 167.734 30.4589L168.035 30.1711C169.072 31.257 170.084 32.3667 171.071 33.4995ZM164.85 26.9857L164.562 27.2869C163.481 26.2543 162.376 25.2463 161.248 24.2639L161.521 23.9498C162.654 24.9363 163.764 25.9486 164.85 26.9857ZM158.057 21.07C156.881 20.1373 155.683 19.2311 154.464 18.3525L154.22 18.6904C155.434 19.5653 156.627 20.4676 157.798 21.3964L158.057 21.07ZM150.75 15.8033L150.522 16.1521C149.271 15.3354 148 14.5467 146.71 13.7871L146.922 13.4281C148.217 14.191 149.493 14.983 150.75 15.8033ZM142.988 11.2323L142.793 11.6007C141.473 10.9034 140.135 10.2355 138.779 9.59814L138.957 9.22114C140.318 9.86128 141.662 10.532 142.988 11.2323ZM134.836 7.39913L134.677 7.78396C133.298 7.21231 131.903 6.6715 130.494 6.1624L130.635 5.77056C132.051 6.28186 133.452 6.82501 134.836 7.39913ZM126.363 4.33919L126.24 4.73719C124.815 4.29652 123.377 3.88776 121.925 3.51174L122.029 3.10844C123.487 3.48608 124.932 3.89661 126.363 4.33919ZM117.644 2.0809C116.18 1.77353 114.703 1.49901 113.216 1.25814L113.149 1.66939C114.63 1.90923 116.1 2.18257 117.558 2.48862L117.644 2.0809ZM108.754 0.641262L108.707 1.05515C107.228 0.885364 105.739 0.7488 104.241 0.646223L104.269 0.230589C105.774 0.333602 107.269 0.470749 108.754 0.641262ZM99.77 0.0256657L99.7605 0.442165C99.0125 0.425157 98.2624 0.416607 97.5104 0.416607C96.7583 0.416607 96.0082 0.425157 95.2602 0.442165L95.2508 0.0256659C96.0019 0.00858606 96.7551 0 97.5104 0C98.2656 0 99.0188 0.008586 99.77 0.0256657ZM90.7514 0.23059L90.7799 0.646224C89.2816 0.748801 87.7927 0.885365 86.3139 1.05515L86.2664 0.641262C87.7515 0.47075 89.2468 0.333603 90.7514 0.23059ZM81.8051 1.25814L81.8717 1.66939C80.3904 1.90923 78.9205 2.18257 77.4625 2.48863L77.3769 2.08091C78.8412 1.77353 80.3175 1.49901 81.8051 1.25814ZM72.9916 3.10845L73.0961 3.51175C71.6442 3.88776 70.2056 4.29652 68.7809 4.7372L68.6578 4.3392C70.0886 3.89662 71.5335 3.48609 72.9916 3.10845ZM64.3854 5.77057L64.5269 6.16241C63.1172 6.67151 61.7227 7.21232 60.3442 7.78397L60.1846 7.39914C61.5691 6.82502 62.9696 6.28187 64.3854 5.77057ZM56.0642 9.22114L56.2415 9.59815C54.886 10.2355 53.5477 10.9034 52.2274 11.6007L52.0329 11.2324C53.3588 10.532 54.7029 9.86129 56.0642 9.22114ZM48.0991 13.4281L48.3105 13.7871C47.0206 14.5467 45.7497 15.3354 44.4989 16.1521L44.2711 15.8033C45.5273 14.983 46.8036 14.191 48.0991 13.4281ZM40.5568 18.3525L40.8004 18.6904C39.5865 19.5653 38.3936 20.4676 37.2226 21.3964L36.9638 21.07C38.1397 20.1373 39.3377 19.2311 40.5568 18.3525ZM33.4995 23.9498L33.7731 24.264C32.6452 25.2463 31.5401 26.2543 30.4589 27.2869L30.1711 26.9857C31.257 25.9486 32.3667 24.9363 33.4995 23.9498ZM26.9857 30.1711L27.2869 30.4589C26.2543 31.5401 25.2463 32.6452 24.2639 33.7731L23.9498 33.4995C24.9363 32.3667 25.9486 31.257 26.9857 30.1711ZM21.07 36.9638L21.3964 37.2226C20.4676 38.3936 19.5653 39.5865 18.6904 40.8004L18.3525 40.5568C19.2311 39.3377 20.1373 38.1397 21.07 36.9638ZM15.8033 44.2711L16.1521 44.4989C15.3354 45.7497 14.5467 47.0206 13.7871 48.3105L13.4281 48.0991C14.191 46.8036 14.983 45.5273 15.8033 44.2711ZM11.2324 52.0329L11.6007 52.2275C10.9034 53.5477 10.2355 54.886 9.59814 56.2415L9.22114 56.0642C9.86128 54.7029 10.532 53.3588 11.2324 52.0329ZM7.39913 60.1846L7.78396 60.3442C7.21231 61.7227 6.6715 63.1173 6.1624 64.527L5.77056 64.3855C6.28186 62.9697 6.82501 61.5691 7.39913 60.1846ZM4.33919 68.6578L4.73719 68.7809C4.29652 70.2056 3.88776 71.6442 3.51174 73.0961L3.10844 72.9916C3.48608 71.5335 3.89661 70.0886 4.33919 68.6578ZM2.0809 77.377C1.77353 78.8412 1.49901 80.3175 1.25814 81.8051L1.66939 81.8717C1.90923 80.3904 2.18257 78.9205 2.48862 77.4625L2.0809 77.377ZM0.641262 86.2664L1.05515 86.3139C0.885364 87.7927 0.7488 89.2816 0.646223 90.7799L0.230589 90.7515C0.333603 89.2468 0.470749 87.7515 0.641262 86.2664ZM0.0256657 95.2508C0.00858601 96.0019 0 96.7551 0 97.5104C0 98.2656 0.00858606 99.0188 0.0256659 99.77L0.442165 99.7605C0.425157 99.0125 0.416607 98.2625 0.416607 97.5104C0.416607 96.7583 0.425157 96.0082 0.442165 95.2602L0.0256657 95.2508ZM0.23059 104.269L0.646224 104.241C0.748801 105.739 0.885365 107.228 1.05515 108.707L0.641262 108.754C0.47075 107.269 0.333603 105.774 0.23059 104.269ZM1.25814 113.216L1.66939 113.149C1.90923 114.63 2.18257 116.1 2.48863 117.558L2.08091 117.644C1.77353 116.18 1.49901 114.703 1.25814 113.216ZM3.10845 122.029L3.51175 121.925C3.88776 123.377 4.29652 124.815 4.7372 126.24L4.3392 126.363C3.89662 124.932 3.48609 123.487 3.10845 122.029ZM5.77057 130.635L6.16241 130.494C6.67151 131.903 7.21232 133.298 7.78397 134.677L7.39913 134.836C6.82502 133.452 6.28187 132.051 5.77057 130.635ZM9.22114 138.957L9.59815 138.779C10.2355 140.135 10.9034 141.473 11.6007 142.793L11.2324 142.988C10.532 141.662 9.86129 140.318 9.22114 138.957ZM13.4281 146.922L13.7871 146.71C14.5467 148 15.3354 149.271 16.1521 150.522L15.8033 150.75C14.983 149.493 14.191 148.217 13.4281 146.922ZM18.3525 154.464L18.6904 154.22C19.5653 155.434 20.4676 156.627 21.3964 157.798L21.07 158.057C20.1373 156.881 19.2311 155.683 18.3525 154.464ZM23.9498 161.521L24.264 161.248C25.2463 162.376 26.2543 163.481 27.2869 164.562L26.9857 164.85C25.9486 163.764 24.9363 162.654 23.9498 161.521ZM30.1711 168.035L30.4589 167.734C31.5401 168.766 32.6452 169.774 33.7731 170.757L33.4995 171.071C32.3667 170.084 31.257 169.072 30.1711 168.035ZM36.9638 173.951L37.2226 173.624C38.3936 174.553 39.5865 175.455 40.8004 176.33L40.5568 176.668C39.3377 175.79 38.1397 174.883 36.9638 173.951ZM44.2711 179.217L44.4989 178.869C45.7497 179.685 47.0206 180.474 48.3105 181.234L48.0991 181.593C46.8036 180.83 45.5273 180.038 44.2711 179.217ZM52.0329 183.788L52.2275 183.42C53.5477 184.117 54.886 184.785 56.2415 185.423L56.0642 185.8C54.7029 185.159 53.3588 184.489 52.0329 183.788ZM60.1846 187.622L60.3442 187.237C61.7227 187.808 63.1173 188.349 64.527 188.858L64.3855 189.25C62.9697 188.739 61.5691 188.196 60.1846 187.622ZM68.6578 190.682L68.7809 190.284C70.2056 190.724 71.6442 191.133 73.0961 191.509L72.9916 191.912C71.5335 191.535 70.0886 191.124 68.6578 190.682ZM77.377 192.94C78.8412 193.247 80.3175 193.522 81.8051 193.763L81.8717 193.351C80.3904 193.112 78.9205 192.838 77.4625 192.532L77.377 192.94ZM86.2664 194.379L86.3139 193.966C87.7927 194.135 89.2816 194.272 90.7799 194.375L90.7515 194.79C89.2468 194.687 87.7515 194.55 86.2664 194.379ZM95.2508 194.995L95.2602 194.579C96.0082 194.596 96.7583 194.604 97.5104 194.604C98.2625 194.604 99.0125 194.596 99.7605 194.579L99.77 194.995C99.0188 195.012 98.2656 195.021 97.5104 195.021C96.7551 195.021 96.0019 195.012 95.2508 194.995ZM104.269 194.79L104.241 194.375C105.739 194.272 107.228 194.135 108.707 193.966L108.754 194.379C107.269 194.55 105.774 194.687 104.269 194.79ZM113.216 193.763L113.149 193.351C114.63 193.112 116.1 192.838 117.558 192.532L117.644 192.94C116.18 193.247 114.703 193.522 113.216 193.763ZM122.029 191.912L121.925 191.509C123.377 191.133 124.815 190.724 126.24 190.284L126.363 190.682C124.932 191.124 123.487 191.535 122.029 191.912ZM130.635 189.25L130.494 188.858C131.903 188.349 133.298 187.808 134.677 187.237L134.836 187.622C133.452 188.196 132.051 188.739 130.635 189.25ZM138.957 185.8L138.779 185.423C140.135 184.785 141.473 184.117 142.793 183.42L142.988 183.788C141.662 184.489 140.318 185.159 138.957 185.8ZM146.922 181.593L146.71 181.234C148 180.474 149.271 179.685 150.522 178.869L150.75 179.217C149.493 180.038 148.217 180.83 146.922 181.593ZM154.464 176.668L154.22 176.33C155.434 175.455 156.627 174.553 157.798 173.624L158.057 173.951C156.881 174.883 155.683 175.79 154.464 176.668ZM161.521 171.071L161.248 170.757C162.376 169.774 163.481 168.766 164.562 167.734L164.85 168.035C163.764 169.072 162.654 170.084 161.521 171.071ZM168.035 164.85L167.734 164.562C168.766 163.481 169.774 162.376 170.757 161.248L171.071 161.521C170.084 162.654 169.072 163.764 168.035 164.85ZM173.951 158.057L173.624 157.798C174.553 156.627 175.455 155.434 176.33 154.22L176.668 154.464C175.79 155.683 174.883 156.881 173.951 158.057ZM179.217 150.75L178.869 150.522C179.685 149.271 180.474 148 181.234 146.71L181.593 146.922C180.83 148.217 180.038 149.493 179.217 150.75ZM183.788 142.988L183.42 142.793C184.117 141.473 184.785 140.135 185.423 138.779L185.8 138.957C185.159 140.318 184.489 141.662 183.788 142.988ZM187.622 134.836L187.237 134.677C187.808 133.298 188.349 131.903 188.858 130.494L189.25 130.635C188.739 132.051 188.196 133.452 187.622 134.836ZM190.682 126.363L190.284 126.24C190.724 124.815 191.133 123.377 191.509 121.925L191.912 122.029C191.535 123.487 191.124 124.932 190.682 126.363ZM192.94 117.644C193.247 116.18 193.522 114.703 193.763 113.216L193.351 113.149C193.112 114.63 192.838 116.1 192.532 117.558L192.94 117.644ZM194.379 108.754L193.966 108.707C194.135 107.228 194.272 105.739 194.375 104.241L194.79 104.269C194.687 105.774 194.55 107.269 194.379 108.754Z" fill="#A7A7A7"/>
<path d="M57.509 98.4459C59.4319 98.4459 60.7097 97.2654 60.7097 95.7563C60.7097 94.016 59.6509 93.4319 57.6064 93.152C56.0973 92.9329 55.8052 92.58 55.8052 91.8741C55.8052 91.2048 56.3164 90.7301 57.3021 90.7301C58.3001 90.7301 58.8234 91.1196 58.9816 92.0323H60.4663C60.2959 90.365 59.1763 89.5131 57.3021 89.5131C55.4888 89.5131 54.2718 90.5841 54.2718 92.008C54.2718 93.6388 55.2576 94.2716 57.3386 94.5515C58.7504 94.7827 59.152 95.087 59.152 95.8902C59.152 96.6934 58.4704 97.2289 57.509 97.2289C56.0364 97.2289 55.6835 96.4987 55.574 95.6225H54.0162C54.1379 97.2654 55.1359 98.4459 57.509 98.4459ZM64.078 98.4337C64.5282 98.4337 64.8447 98.3607 65.0759 98.2755V97.1072C64.869 97.1924 64.6499 97.2289 64.3579 97.2289C63.8954 97.2289 63.6277 96.9733 63.6277 96.4135V93.0668H65.0272V91.9593H63.6277V90.5598H62.1551V91.9593H61.3032V93.0668H62.1551V96.5474C62.1551 97.7522 62.8123 98.4337 64.078 98.4337ZM68.9598 98.4459C70.5906 98.4459 71.6738 97.7157 71.8806 96.377H70.4568C70.3472 96.9977 69.8848 97.3506 68.9964 97.3506C67.9011 97.3506 67.2926 96.6691 67.2439 95.4643H71.905V95.0383C71.905 92.7625 70.4811 91.8254 68.899 91.8254C67.0857 91.8254 65.7348 93.1398 65.7348 95.1113V95.2087C65.7348 97.2167 67.0857 98.4459 68.9598 98.4459ZM67.2682 94.4785C67.4143 93.4927 68.0106 92.8964 68.899 92.8964C69.8117 92.8964 70.3716 93.3832 70.4446 94.4785H67.2682ZM73.2325 98.3242H74.705V93.0668H76.1533V91.9593H74.705V91.0466C74.705 90.4989 74.9484 90.1095 75.5448 90.1095C75.8125 90.1095 76.0437 90.1581 76.2141 90.219V89.075C75.9464 88.9898 75.7273 88.9533 75.3744 88.9533C74.0113 88.9533 73.2325 89.7079 73.2325 91.1074V91.9593H72.3684V93.0668H73.2325V98.3242ZM77.1427 98.3242H78.6153V94.5759C78.6153 93.5657 79.2847 93.0546 80.1122 93.0546C80.9885 93.0546 81.3779 93.4927 81.3779 94.4542V98.3242H82.8505V94.3203C82.8505 92.5678 81.9499 91.8254 80.672 91.8254C79.6254 91.8254 78.9196 92.3487 78.6153 92.9694V91.9593H77.1427V98.3242ZM86.4333 98.4459C87.4677 98.4459 88.1371 97.9469 88.4535 97.3263V98.3242H89.9261V91.9593H88.4535V95.7442C88.4535 96.7543 87.7598 97.2654 86.9688 97.2654C86.1169 97.2654 85.7153 96.8273 85.7153 95.8659V91.9593H84.2427V96.0363C84.2427 97.7279 85.1798 98.4459 86.4333 98.4459ZM91.4287 98.3242H92.9013V94.515C92.9013 93.5414 93.5706 93.0546 94.3008 93.0546C95.0188 93.0546 95.4326 93.4562 95.4326 94.3933V98.3242H96.9052V94.515C96.9052 93.5414 97.5746 93.0546 98.3048 93.0546C99.035 93.0546 99.4366 93.4562 99.4366 94.3933V98.3242H100.909V94.2959C100.909 92.5435 99.9599 91.8254 98.7916 91.8254C98.0005 91.8254 97.1243 92.1784 96.6375 92.9694C96.321 92.1784 95.6639 91.8254 94.8363 91.8254C93.8992 91.8254 93.2055 92.3366 92.9013 92.9329V91.9593H91.4287V98.3242ZM104.584 91.01H105.667L106.933 89.1237H105.302L104.584 91.01ZM105.205 97.3019C104.085 97.3019 103.44 96.4865 103.44 95.1844V95.087C103.44 93.7726 104.109 92.9816 105.205 92.9816C106.3 92.9816 106.957 93.7848 106.957 95.0992V95.1844C106.957 96.4865 106.3 97.3019 105.205 97.3019ZM105.193 98.4459C107.067 98.4459 108.466 97.1559 108.466 95.1722V95.0748C108.466 93.1276 107.067 91.8254 105.205 91.8254C103.331 91.8254 101.931 93.1398 101.931 95.1113V95.2087C101.931 97.1437 103.318 98.4459 105.193 98.4459ZM111.72 98.4337C112.17 98.4337 112.486 98.3607 112.718 98.2755V97.1072C112.511 97.1924 112.292 97.2289 112 97.2289C111.537 97.2289 111.269 96.9733 111.269 96.4135V93.0668H112.669V91.9593H111.269V90.5598H109.797V91.9593H108.945V93.0668H109.797V96.5474C109.797 97.7522 110.454 98.4337 111.72 98.4337ZM115.932 98.4459C116.967 98.4459 117.636 97.9469 117.952 97.3263V98.3242H119.425V91.9593H117.952V95.7442C117.952 96.7543 117.259 97.2654 116.468 97.2654C115.616 97.2654 115.214 96.8273 115.214 95.8659V91.9593H113.742V96.0363C113.742 97.7279 114.679 98.4459 115.932 98.4459ZM120.928 98.3242H122.4V94.5759C122.4 93.5657 123.07 93.0546 123.897 93.0546C124.773 93.0546 125.163 93.4927 125.163 94.4542V98.3242H126.635V94.3203C126.635 92.5678 125.735 91.8254 124.457 91.8254C123.41 91.8254 122.704 92.3487 122.4 92.9694V91.9593H120.928V98.3242Z" fill="#111111"/>
<path fill-rule="evenodd" clip-rule="evenodd" d="M194.995 254.75L194.579 254.741C194.596 253.993 194.604 253.243 194.604 252.491C194.604 251.739 194.596 250.989 194.579 250.241L194.995 250.231C195.012 250.982 195.021 251.736 195.021 252.491C195.021 253.246 195.012 253.999 194.995 254.75ZM194.79 245.732L194.375 245.76C194.272 244.262 194.135 242.773 193.966 241.294L194.379 241.247C194.55 242.732 194.687 244.227 194.79 245.732ZM193.763 236.786L193.351 236.852C193.112 235.371 192.838 233.901 192.532 232.443L192.94 232.357C193.247 233.822 193.522 235.298 193.763 236.786ZM191.912 227.972L191.509 228.077C191.133 226.625 190.724 225.186 190.284 223.761L190.682 223.638C191.124 225.069 191.535 226.514 191.912 227.972ZM189.25 219.366L188.858 219.507C188.349 218.098 187.808 216.703 187.237 215.325L187.622 215.165C188.196 216.55 188.739 217.95 189.25 219.366ZM185.8 211.045L185.423 211.222C184.785 209.866 184.117 208.528 183.42 207.208L183.788 207.013C184.489 208.339 185.159 209.683 185.8 211.045ZM181.593 203.08C180.83 201.784 180.038 200.508 179.217 199.252L178.869 199.479C179.685 200.73 180.474 202.001 181.234 203.291L181.593 203.08ZM176.668 195.537L176.33 195.781C175.455 194.567 174.553 193.374 173.624 192.203L173.951 191.944C174.883 193.12 175.79 194.318 176.668 195.537ZM171.071 188.48L170.757 188.754C169.774 187.626 168.766 186.521 167.734 185.439L168.035 185.152C169.072 186.237 170.084 187.347 171.071 188.48ZM164.85 181.966L164.562 182.267C163.481 181.235 162.376 180.227 161.248 179.244L161.521 178.93C162.654 179.917 163.764 180.929 164.85 181.966ZM158.057 176.05C156.881 175.118 155.683 174.212 154.464 173.333L154.22 173.671C155.434 174.546 156.627 175.448 157.798 176.377L158.057 176.05ZM150.75 170.784L150.522 171.133C149.271 170.316 148 169.527 146.71 168.768L146.922 168.409C148.217 169.171 149.493 169.964 150.75 170.784ZM142.988 166.213L142.793 166.581C141.473 165.884 140.135 165.216 138.779 164.579L138.957 164.202C140.318 164.842 141.662 165.512 142.988 166.213ZM134.836 162.38L134.677 162.764C133.298 162.193 131.903 161.652 130.494 161.143L130.635 160.751C132.051 161.262 133.452 161.805 134.836 162.38ZM126.363 159.32L126.24 159.718C124.815 159.277 123.377 158.868 121.925 158.492L122.029 158.089C123.487 158.467 124.932 158.877 126.363 159.32ZM117.644 157.061C116.18 156.754 114.703 156.479 113.216 156.239L113.149 156.65C114.63 156.89 116.1 157.163 117.558 157.469L117.644 157.061ZM108.754 155.622L108.707 156.036C107.228 155.866 105.739 155.729 104.241 155.627L104.269 155.211C105.774 155.314 107.269 155.451 108.754 155.622ZM99.77 155.006L99.7605 155.423C99.0125 155.406 98.2624 155.397 97.5104 155.397C96.7583 155.397 96.0082 155.406 95.2602 155.423L95.2508 155.006C96.0019 154.989 96.7551 154.98 97.5104 154.98C98.2656 154.98 99.0188 154.989 99.77 155.006ZM90.7514 155.211L90.7799 155.627C89.2816 155.729 87.7927 155.866 86.3139 156.036L86.2664 155.622C87.7515 155.451 89.2468 155.314 90.7514 155.211ZM81.8051 156.239L81.8717 156.65C80.3904 156.89 78.9205 157.163 77.4625 157.469L77.3769 157.061C78.8412 156.754 80.3175 156.479 81.8051 156.239ZM72.9916 158.089L73.0961 158.492C71.6442 158.868 70.2056 159.277 68.7809 159.718L68.6578 159.32C70.0886 158.877 71.5335 158.467 72.9916 158.089ZM64.3854 160.751L64.5269 161.143C63.1172 161.652 61.7227 162.193 60.3442 162.764L60.1846 162.38C61.5691 161.805 62.9696 161.262 64.3854 160.751ZM56.0642 164.202L56.2415 164.579C54.886 165.216 53.5477 165.884 52.2274 166.581L52.0329 166.213C53.3588 165.512 54.7029 164.842 56.0642 164.202ZM48.0991 168.409L48.3105 168.768C47.0206 169.527 45.7497 170.316 44.4989 171.133L44.2711 170.784C45.5273 169.964 46.8036 169.171 48.0991 168.409ZM40.5568 173.333L40.8004 173.671C39.5865 174.546 38.3936 175.448 37.2226 176.377L36.9638 176.05C38.1397 175.118 39.3377 174.212 40.5568 173.333ZM33.4995 178.93L33.7731 179.244C32.6452 180.227 31.5401 181.235 30.4589 182.267L30.1711 181.966C31.257 180.929 32.3667 179.917 33.4995 178.93ZM26.9857 185.152L27.2869 185.439C26.2543 186.521 25.2463 187.626 24.2639 188.754L23.9498 188.48C24.9363 187.347 25.9486 186.237 26.9857 185.152ZM21.07 191.944L21.3964 192.203C20.4676 193.374 19.5653 194.567 18.6904 195.781L18.3525 195.537C19.2311 194.318 20.1373 193.12 21.07 191.944ZM15.8033 199.252L16.1521 199.479C15.3354 200.73 14.5467 202.001 13.7871 203.291L13.4281 203.08C14.191 201.784 14.983 200.508 15.8033 199.252ZM11.2324 207.013L11.6007 207.208C10.9034 208.528 10.2355 209.867 9.59814 211.222L9.22114 211.045C9.86128 209.683 10.532 208.339 11.2324 207.013ZM7.39913 215.165L7.78396 215.325C7.21231 216.703 6.6715 218.098 6.1624 219.507L5.77056 219.366C6.28186 217.95 6.82501 216.55 7.39913 215.165ZM4.33919 223.638L4.73719 223.761C4.29652 225.186 3.88776 226.625 3.51174 228.077L3.10844 227.972C3.48608 226.514 3.89661 225.069 4.33919 223.638ZM2.0809 232.357C1.77353 233.822 1.49901 235.298 1.25814 236.786L1.66939 236.852C1.90923 235.371 2.18257 233.901 2.48862 232.443L2.0809 232.357ZM0.641262 241.247L1.05515 241.294C0.885364 242.773 0.7488 244.262 0.646223 245.76L0.230589 245.732C0.333603 244.227 0.470749 242.732 0.641262 241.247ZM0.0256657 250.231C0.00858601 250.982 0 251.736 0 252.491C0 253.246 0.00858606 253.999 0.0256659 254.75L0.442165 254.741C0.425157 253.993 0.416607 253.243 0.416607 252.491C0.416607 251.739 0.425157 250.989 0.442165 250.241L0.0256657 250.231ZM0.23059 259.25L0.646224 259.221C0.748801 260.72 0.885365 262.208 1.05515 263.687L0.641262 263.735C0.47075 262.25 0.333603 260.754 0.23059 259.25ZM1.25814 268.196L1.66939 268.13C1.90923 269.611 2.18257 271.081 2.48863 272.539L2.08091 272.624C1.77353 271.16 1.49901 269.684 1.25814 268.196ZM3.10845 277.01L3.51175 276.905C3.88776 278.357 4.29652 279.796 4.7372 281.22L4.3392 281.343C3.89662 279.913 3.48609 278.468 3.10845 277.01ZM5.77057 285.616L6.16241 285.474C6.67151 286.884 7.21232 288.279 7.78397 289.657L7.39913 289.817C6.82502 288.432 6.28187 287.032 5.77057 285.616ZM9.22114 293.937L9.59815 293.76C10.2355 295.115 10.9034 296.453 11.6007 297.774L11.2324 297.968C10.532 296.642 9.86129 295.298 9.22114 293.937ZM13.4281 301.902L13.7871 301.691C14.5467 302.981 15.3354 304.251 16.1521 305.502L15.8033 305.73C14.983 304.474 14.191 303.198 13.4281 301.902ZM18.3525 309.444L18.6904 309.201C19.5653 310.415 20.4676 311.608 21.3964 312.779L21.07 313.037C20.1373 311.861 19.2311 310.664 18.3525 309.444ZM23.9498 316.502L24.264 316.228C25.2463 317.356 26.2543 318.461 27.2869 319.542L26.9857 319.83C25.9486 318.744 24.9363 317.634 23.9498 316.502ZM30.1711 323.016L30.4589 322.714C31.5401 323.747 32.6452 324.755 33.7731 325.737L33.4995 326.051C32.3667 325.065 31.257 324.053 30.1711 323.016ZM36.9638 328.931L37.2226 328.605C38.3936 329.534 39.5865 330.436 40.8004 331.311L40.5568 331.649C39.3377 330.77 38.1397 329.864 36.9638 328.931ZM44.2711 334.198L44.4989 333.849C45.7497 334.666 47.0206 335.454 48.3105 336.214L48.0991 336.573C46.8036 335.81 45.5273 335.018 44.2711 334.198ZM52.0329 338.769L52.2275 338.4C53.5477 339.098 54.886 339.766 56.2415 340.403L56.0642 340.78C54.7029 340.14 53.3588 339.469 52.0329 338.769ZM60.1846 342.602L60.3442 342.217C61.7227 342.789 63.1173 343.33 64.527 343.839L64.3855 344.231C62.9697 343.719 61.5691 343.176 60.1846 342.602ZM68.6578 345.662L68.7809 345.264C70.2056 345.705 71.6442 346.113 73.0961 346.489L72.9916 346.893C71.5335 346.515 70.0886 346.105 68.6578 345.662ZM77.377 347.92C78.8412 348.228 80.3175 348.502 81.8051 348.743L81.8717 348.332C80.3904 348.092 78.9205 347.819 77.4625 347.513L77.377 347.92ZM86.2664 349.36L86.3139 348.946C87.7927 349.116 89.2816 349.252 90.7799 349.355L90.7515 349.771C89.2468 349.668 87.7515 349.53 86.2664 349.36ZM95.2508 349.976L95.2602 349.559C96.0082 349.576 96.7583 349.585 97.5104 349.585C98.2625 349.585 99.0125 349.576 99.7605 349.559L99.77 349.976C99.0188 349.993 98.2656 350.001 97.5104 350.001C96.7551 350.001 96.0019 349.993 95.2508 349.976ZM104.269 349.771L104.241 349.355C105.739 349.252 107.228 349.116 108.707 348.946L108.754 349.36C107.269 349.53 105.774 349.668 104.269 349.771ZM113.216 348.743L113.149 348.332C114.63 348.092 116.1 347.819 117.558 347.513L117.644 347.92C116.18 348.228 114.703 348.502 113.216 348.743ZM122.029 346.893L121.925 346.489C123.377 346.113 124.815 345.705 126.24 345.264L126.363 345.662C124.932 346.105 123.487 346.515 122.029 346.893ZM130.635 344.231L130.494 343.839C131.903 343.33 133.298 342.789 134.677 342.217L134.836 342.602C133.452 343.176 132.051 343.719 130.635 344.231ZM138.957 340.78L138.779 340.403C140.135 339.766 141.473 339.098 142.793 338.4L142.988 338.769C141.662 339.469 140.318 340.14 138.957 340.78ZM146.922 336.573L146.71 336.214C148 335.454 149.271 334.666 150.522 333.849L150.75 334.198C149.493 335.018 148.217 335.81 146.922 336.573ZM154.464 331.649L154.22 331.311C155.434 330.436 156.627 329.534 157.798 328.605L158.057 328.931C156.881 329.864 155.683 330.77 154.464 331.649ZM161.521 326.051L161.248 325.737C162.376 324.755 163.481 323.747 164.562 322.714L164.85 323.016C163.764 324.053 162.654 325.065 161.521 326.051ZM168.035 319.83L167.734 319.542C168.766 318.461 169.774 317.356 170.757 316.228L171.071 316.502C170.084 317.634 169.072 318.744 168.035 319.83ZM173.951 313.037L173.624 312.779C174.553 311.608 175.455 310.415 176.33 309.201L176.668 309.444C175.79 310.664 174.883 311.861 173.951 313.037ZM179.217 305.73L178.869 305.502C179.685 304.251 180.474 302.981 181.234 301.691L181.593 301.902C180.83 303.198 180.038 304.474 179.217 305.73ZM183.788 297.968L183.42 297.774C184.117 296.453 184.785 295.115 185.423 293.76L185.8 293.937C185.159 295.298 184.489 296.642 183.788 297.968ZM187.622 289.817L187.237 289.657C187.808 288.278 188.349 286.884 188.858 285.474L189.25 285.616C188.739 287.032 188.196 288.432 187.622 289.817ZM190.682 281.343L190.284 281.22C190.724 279.796 191.133 278.357 191.509 276.905L191.912 277.01C191.535 278.468 191.124 279.913 190.682 281.343ZM192.94 272.624C193.247 271.16 193.522 269.684 193.763 268.196L193.351 268.13C193.112 269.611 192.838 271.081 192.532 272.539L192.94 272.624ZM194.379 263.735L193.966 263.687C194.135 262.208 194.272 260.72 194.375 259.221L194.79 259.25C194.687 260.754 194.55 262.25 194.379 263.735Z" fill="#A7A7A7"/>
<path d="M47.9622 261.122C49.8851 261.122 51.1629 259.941 51.1629 258.432C51.1629 256.692 50.1041 256.108 48.0596 255.828C46.5505 255.609 46.2584 255.256 46.2584 254.55C46.2584 253.881 46.7696 253.406 47.7553 253.406C48.7533 253.406 49.2766 253.795 49.4348 254.708H50.9195C50.7491 253.041 49.6295 252.189 47.7553 252.189C45.942 252.189 44.725 253.26 44.725 254.684C44.725 256.315 45.7108 256.947 47.7918 257.227C49.2036 257.459 49.6052 257.763 49.6052 258.566C49.6052 259.369 48.9236 259.905 47.9622 259.905C46.4896 259.905 46.1367 259.174 46.0272 258.298H44.4694C44.5911 259.941 45.5891 261.122 47.9622 261.122ZM51.5252 263.288C53.2898 263.264 53.874 262.509 53.874 261.219V254.635H52.4014V261.256C52.4014 261.791 52.1702 262.107 51.5252 262.156V263.288ZM53.1194 253.588C53.6062 253.588 53.9957 253.223 53.9957 252.749C53.9957 252.262 53.6062 251.897 53.1194 251.897C52.6326 251.897 52.2432 252.262 52.2432 252.749C52.2432 253.223 52.6326 253.588 53.1194 253.588ZM57.6526 253.686H58.7357L60.0014 251.799H58.3706L57.6526 253.686ZM58.2732 259.978C57.1536 259.978 56.5086 259.162 56.5086 257.86V257.763C56.5086 256.448 57.1779 255.657 58.2732 255.657C59.3685 255.657 60.0257 256.461 60.0257 257.775V257.86C60.0257 259.162 59.3685 259.978 58.2732 259.978ZM58.2611 261.122C60.1353 261.122 61.5348 259.832 61.5348 257.848V257.751C61.5348 255.803 60.1353 254.501 58.2732 254.501C56.3991 254.501 54.9995 255.816 54.9995 257.787V257.884C54.9995 259.82 56.3869 261.122 58.2611 261.122ZM62.6219 261H64.0945V257.252C64.0945 256.242 64.7638 255.73 65.5914 255.73C66.4676 255.73 66.8571 256.169 66.8571 257.13V261H68.3297V256.996C68.3297 255.244 67.4291 254.501 66.1512 254.501C65.1046 254.501 64.3987 255.025 64.0945 255.645V254.635H62.6219V261ZM69.7827 261H71.2553V257.69C71.2553 256.339 72.0342 255.925 73.3242 255.913V254.538C72.2533 254.55 71.6569 255.025 71.2553 255.828V254.635H69.7827V261ZM80.9268 261.122C82.4967 261.122 83.5555 260.391 83.7624 259.053H82.3506C82.2411 259.673 81.7908 260.026 80.9389 260.026C79.8801 260.026 79.3203 259.333 79.2716 258.116H83.7989V257.714C83.7989 255.414 82.3993 254.501 80.8659 254.501C79.9775 254.501 79.2595 254.842 78.7605 255.426C78.3711 254.757 77.653 254.501 76.7403 254.501C75.3529 254.501 74.1724 255.122 74.0507 256.607H75.4746C75.5476 255.962 75.9371 255.609 76.7038 255.609C77.5313 255.609 77.8599 256.035 77.8599 256.887V257.179H77.0324C75.2069 257.179 73.7951 257.751 73.7951 259.235C73.7951 260.562 74.7809 261.122 76.0101 261.122C77.2149 261.122 77.9451 260.72 78.5049 259.905C79.0039 260.684 79.8315 261.122 80.9268 261.122ZM76.29 260.063C75.5476 260.063 75.2555 259.71 75.2555 259.15C75.2555 258.371 75.9736 258.128 77.0689 258.128H77.8599V258.773C77.8599 259.588 77.2027 260.063 76.29 260.063ZM79.296 257.179C79.4298 256.181 80.014 255.572 80.8659 255.572C81.7421 255.572 82.2533 256.059 82.3385 257.179H79.296ZM84.8531 261H86.3257V257.252C86.3257 256.242 86.995 255.73 87.8226 255.73C88.6988 255.73 89.0883 256.169 89.0883 257.13V261H90.5608V256.996C90.5608 255.244 89.6603 254.501 88.3824 254.501C87.3358 254.501 86.6299 255.025 86.3257 255.645V254.635H84.8531V261ZM94.6704 261H96.143V257.252C96.143 256.242 96.8123 255.73 97.6399 255.73C98.5161 255.73 98.9056 256.169 98.9056 257.13V261H100.378V256.996C100.378 255.244 99.4775 254.501 98.1997 254.501C97.1531 254.501 96.4472 255.025 96.143 255.645V251.69H94.6704V261ZM103.462 253.54C103.9 253.54 104.265 253.187 104.265 252.749C104.265 252.323 103.9 251.958 103.462 251.958C103.024 251.958 102.659 252.323 102.659 252.749C102.659 253.187 103.024 253.54 103.462 253.54ZM105.872 253.54C106.31 253.54 106.675 253.187 106.675 252.749C106.675 252.323 106.31 251.958 105.872 251.958C105.421 251.958 105.068 252.323 105.068 252.749C105.068 253.187 105.421 253.54 105.872 253.54ZM104.679 259.978C103.559 259.978 102.914 259.162 102.914 257.86V257.763C102.914 256.448 103.584 255.657 104.679 255.657C105.774 255.657 106.431 256.461 106.431 257.775V257.86C106.431 259.162 105.774 259.978 104.679 259.978ZM104.667 261.122C106.541 261.122 107.941 259.832 107.941 257.848V257.751C107.941 255.803 106.541 254.501 104.679 254.501C102.805 254.501 101.405 255.816 101.405 257.787V257.884C101.405 259.82 102.793 261.122 104.667 261.122ZM109.028 261H110.5V257.252C110.5 256.242 111.17 255.73 111.997 255.73C112.873 255.73 113.263 256.169 113.263 257.13V261H114.735V256.996C114.735 255.244 113.835 254.501 112.557 254.501C111.51 254.501 110.804 255.025 110.5 255.645V254.635H109.028V261ZM116.188 261H117.661V257.252C117.661 256.242 118.33 255.73 119.158 255.73C120.034 255.73 120.424 256.169 120.424 257.13V261H121.896V256.996C121.896 255.244 120.996 254.501 119.718 254.501C118.671 254.501 117.965 255.025 117.661 255.645V254.635H116.188V261ZM125.479 261.122C126.513 261.122 127.183 260.623 127.499 260.002V261H128.972V254.635H127.499V258.42C127.499 259.43 126.806 259.941 126.015 259.941C125.163 259.941 124.761 259.503 124.761 258.542V254.635H123.288V258.712C123.288 260.404 124.226 261.122 125.479 261.122ZM130.474 261H131.947V257.252C131.947 256.242 132.616 255.73 133.444 255.73C134.32 255.73 134.71 256.169 134.71 257.13V261H136.182V256.996C136.182 255.244 135.282 254.501 134.004 254.501C132.957 254.501 132.251 255.025 131.947 255.645V254.635H130.474V261Z" fill="#111111"/>
<path fill-rule="evenodd" clip-rule="evenodd" d="M349.972 99.77L349.555 99.7605C349.572 99.0125 349.581 98.2624 349.581 97.5104C349.581 96.7583 349.572 96.0082 349.555 95.2602L349.972 95.2508C349.989 96.0019 349.997 96.7551 349.997 97.5104C349.997 98.2656 349.989 99.0188 349.972 99.77ZM349.767 90.7514L349.351 90.7799C349.249 89.2816 349.112 87.7927 348.942 86.3139L349.356 86.2664C349.527 87.7515 349.664 89.2468 349.767 90.7514ZM348.739 81.8051L348.328 81.8717C348.088 80.3904 347.815 78.9205 347.509 77.4625L347.916 77.3769C348.224 78.8412 348.498 80.3175 348.739 81.8051ZM346.889 72.9916L346.486 73.0961C346.11 71.6442 345.701 70.2056 345.26 68.7809L345.658 68.6578C346.101 70.0886 346.511 71.5335 346.889 72.9916ZM344.227 64.3854L343.835 64.5269C343.326 63.1172 342.785 61.7227 342.213 60.3442L342.598 60.1846C343.172 61.5691 343.715 62.9696 344.227 64.3854ZM340.776 56.0642L340.399 56.2415C339.762 54.886 339.094 53.5477 338.397 52.2274L338.765 52.0329C339.465 53.3588 340.136 54.7029 340.776 56.0642ZM336.569 48.0991C335.806 46.8036 335.014 45.5273 334.194 44.2711L333.845 44.4989C334.662 45.7497 335.451 47.0206 336.21 48.3105L336.569 48.0991ZM331.645 40.5568L331.307 40.8004C330.432 39.5865 329.53 38.3936 328.601 37.2226L328.927 36.9638C329.86 38.1397 330.766 39.3377 331.645 40.5568ZM326.048 33.4995L325.733 33.7731C324.751 32.6452 323.743 31.5401 322.71 30.4589L323.012 30.1711C324.049 31.257 325.061 32.3667 326.048 33.4995ZM319.826 26.9857L319.538 27.2869C318.457 26.2543 317.352 25.2463 316.224 24.2639L316.498 23.9498C317.631 24.9363 318.74 25.9486 319.826 26.9857ZM313.034 21.07C311.858 20.1373 310.66 19.2311 309.441 18.3525L309.197 18.6904C310.411 19.5653 311.604 20.4676 312.775 21.3964L313.034 21.07ZM305.726 15.8033L305.498 16.1521C304.248 15.3354 302.977 14.5467 301.687 13.7871L301.898 13.4281C303.194 14.191 304.47 14.983 305.726 15.8033ZM297.964 11.2323L297.77 11.6007C296.45 10.9034 295.111 10.2355 293.756 9.59814L293.933 9.22114C295.294 9.86128 296.638 10.532 297.964 11.2323ZM289.813 7.39913L289.653 7.78396C288.275 7.21231 286.88 6.6715 285.47 6.1624L285.612 5.77056C287.028 6.28186 288.428 6.82501 289.813 7.39913ZM281.339 4.33919L281.216 4.73719C279.792 4.29652 278.353 3.88776 276.901 3.51174L277.006 3.10844C278.464 3.48608 279.909 3.89661 281.339 4.33919ZM272.62 2.0809C271.156 1.77353 269.68 1.49901 268.192 1.25814L268.126 1.66939C269.607 1.90923 271.077 2.18257 272.535 2.48862L272.62 2.0809ZM263.731 0.641262L263.683 1.05515C262.205 0.885364 260.716 0.7488 259.217 0.646223L259.246 0.230589C260.75 0.333602 262.246 0.470749 263.731 0.641262ZM254.747 0.0256657L254.737 0.442165C253.989 0.425157 253.239 0.416607 252.487 0.416607C251.735 0.416607 250.985 0.425157 250.237 0.442165L250.227 0.0256659C250.978 0.00858606 251.732 0 252.487 0C253.242 0 253.995 0.008586 254.747 0.0256657ZM245.728 0.23059L245.756 0.646224C244.258 0.748801 242.769 0.885365 241.291 1.05515L241.243 0.641262C242.728 0.47075 244.223 0.333603 245.728 0.23059ZM236.782 1.25814L236.848 1.66939C235.367 1.90923 233.897 2.18257 232.439 2.48863L232.354 2.08091C233.818 1.77353 235.294 1.49901 236.782 1.25814ZM227.968 3.10845L228.073 3.51175C226.621 3.88776 225.182 4.29652 223.757 4.7372L223.634 4.3392C225.065 3.89662 226.51 3.48609 227.968 3.10845ZM219.362 5.77057L219.504 6.16241C218.094 6.67151 216.699 7.21232 215.321 7.78397L215.161 7.39914C216.546 6.82502 217.946 6.28187 219.362 5.77057ZM211.041 9.22114L211.218 9.59815C209.863 10.2355 208.524 10.9034 207.204 11.6007L207.009 11.2324C208.335 10.532 209.679 9.86129 211.041 9.22114ZM203.076 13.4281L203.287 13.7871C201.997 14.5467 200.726 15.3354 199.475 16.1521L199.248 15.8033C200.504 14.983 201.78 14.191 203.076 13.4281ZM195.533 18.3525L195.777 18.6904C194.563 19.5653 193.37 20.4676 192.199 21.3964L191.94 21.07C193.116 20.1373 194.314 19.2311 195.533 18.3525ZM188.476 23.9498L188.75 24.264C187.622 25.2463 186.517 26.2543 185.435 27.2869L185.148 26.9857C186.234 25.9486 187.343 24.9363 188.476 23.9498ZM181.962 30.1711L182.264 30.4589C181.231 31.5401 180.223 32.6452 179.241 33.7731L178.926 33.4995C179.913 32.3667 180.925 31.257 181.962 30.1711ZM176.047 36.9638L176.373 37.2226C175.444 38.3936 174.542 39.5865 173.667 40.8004L173.329 40.5568C174.208 39.3377 175.114 38.1397 176.047 36.9638ZM170.78 44.2711L171.129 44.4989C170.312 45.7497 169.523 47.0206 168.764 48.3105L168.405 48.0991C169.168 46.8036 169.96 45.5273 170.78 44.2711ZM166.209 52.0329L166.577 52.2275C165.88 53.5477 165.212 54.886 164.575 56.2415L164.198 56.0642C164.838 54.7029 165.509 53.3588 166.209 52.0329ZM162.376 60.1846L162.761 60.3442C162.189 61.7227 161.648 63.1173 161.139 64.527L160.747 64.3855C161.258 62.9697 161.802 61.5691 162.376 60.1846ZM159.316 68.6578L159.714 68.7809C159.273 70.2056 158.864 71.6442 158.488 73.0961L158.085 72.9916C158.463 71.5335 158.873 70.0886 159.316 68.6578ZM157.057 77.377C156.75 78.8412 156.476 80.3175 156.235 81.8051L156.646 81.8717C156.886 80.3904 157.159 78.9205 157.465 77.4625L157.057 77.377ZM155.618 86.2664L156.032 86.3139C155.862 87.7927 155.725 89.2816 155.623 90.7799L155.207 90.7515C155.31 89.2468 155.447 87.7515 155.618 86.2664ZM155.002 95.2508C154.985 96.0019 154.977 96.7551 154.977 97.5104C154.977 98.2656 154.985 99.0188 155.002 99.77L155.419 99.7605C155.402 99.0125 155.393 98.2625 155.393 97.5104C155.393 96.7583 155.402 96.0082 155.419 95.2602L155.002 95.2508ZM155.207 104.269L155.623 104.241C155.725 105.739 155.862 107.228 156.032 108.707L155.618 108.754C155.447 107.269 155.31 105.774 155.207 104.269ZM156.235 113.216L156.646 113.149C156.886 114.63 157.159 116.1 157.465 117.558L157.057 117.644C156.75 116.18 156.476 114.703 156.235 113.216ZM158.085 122.029L158.488 121.925C158.864 123.377 159.273 124.815 159.714 126.24L159.316 126.363C158.873 124.932 158.463 123.487 158.085 122.029ZM160.747 130.635L161.139 130.494C161.648 131.903 162.189 133.298 162.761 134.677L162.376 134.836C161.802 133.452 161.258 132.051 160.747 130.635ZM164.198 138.957L164.575 138.779C165.212 140.135 165.88 141.473 166.577 142.793L166.209 142.988C165.509 141.662 164.838 140.318 164.198 138.957ZM168.405 146.922L168.764 146.71C169.523 148 170.312 149.271 171.129 150.522L170.78 150.75C169.96 149.493 169.168 148.217 168.405 146.922ZM173.329 154.464L173.667 154.22C174.542 155.434 175.444 156.627 176.373 157.798L176.047 158.057C175.114 156.881 174.208 155.683 173.329 154.464ZM178.926 161.521L179.241 161.248C180.223 162.376 181.231 163.481 182.264 164.562L181.962 164.85C180.925 163.764 179.913 162.654 178.926 161.521ZM185.148 168.035L185.435 167.734C186.517 168.766 187.622 169.774 188.75 170.757L188.476 171.071C187.343 170.084 186.234 169.072 185.148 168.035ZM191.94 173.951L192.199 173.624C193.37 174.553 194.563 175.455 195.777 176.33L195.533 176.668C194.314 175.79 193.116 174.883 191.94 173.951ZM199.248 179.217L199.475 178.869C200.726 179.685 201.997 180.474 203.287 181.234L203.076 181.593C201.78 180.83 200.504 180.038 199.248 179.217ZM207.009 183.788L207.204 183.42C208.524 184.117 209.863 184.785 211.218 185.423L211.041 185.8C209.679 185.159 208.335 184.489 207.009 183.788ZM215.161 187.622L215.321 187.237C216.699 187.808 218.094 188.349 219.504 188.858L219.362 189.25C217.946 188.739 216.546 188.196 215.161 187.622ZM223.634 190.682L223.758 190.284C225.182 190.724 226.621 191.133 228.073 191.509L227.968 191.912C226.51 191.535 225.065 191.124 223.634 190.682ZM232.354 192.94C233.818 193.247 235.294 193.522 236.782 193.763L236.848 193.351C235.367 193.112 233.897 192.838 232.439 192.532L232.354 192.94ZM241.243 194.379L241.291 193.966C242.769 194.135 244.258 194.272 245.756 194.375L245.728 194.79C244.223 194.687 242.728 194.55 241.243 194.379ZM250.227 194.995L250.237 194.579C250.985 194.596 251.735 194.604 252.487 194.604C253.239 194.604 253.989 194.596 254.737 194.579L254.747 194.995C253.995 195.012 253.242 195.021 252.487 195.021C251.732 195.021 250.978 195.012 250.227 194.995ZM259.246 194.79L259.217 194.375C260.716 194.272 262.205 194.135 263.683 193.966L263.731 194.379C262.246 194.55 260.75 194.687 259.246 194.79ZM268.192 193.763L268.126 193.351C269.607 193.112 271.077 192.838 272.535 192.532L272.62 192.94C271.156 193.247 269.68 193.522 268.192 193.763ZM277.006 191.912L276.901 191.509C278.353 191.133 279.792 190.724 281.216 190.284L281.339 190.682C279.909 191.124 278.464 191.535 277.006 191.912ZM285.612 189.25L285.47 188.858C286.88 188.349 288.275 187.808 289.653 187.237L289.813 187.622C288.428 188.196 287.028 188.739 285.612 189.25ZM293.933 185.8L293.756 185.423C295.111 184.785 296.45 184.117 297.77 183.42L297.964 183.788C296.638 184.489 295.294 185.159 293.933 185.8ZM301.898 181.593L301.687 181.234C302.977 180.474 304.248 179.685 305.498 178.869L305.726 179.217C304.47 180.038 303.194 180.83 301.898 181.593ZM309.441 176.668L309.197 176.33C310.411 175.455 311.604 174.553 312.775 173.624L313.034 173.951C311.858 174.883 310.66 175.79 309.441 176.668ZM316.498 171.071L316.224 170.757C317.352 169.774 318.457 168.766 319.538 167.734L319.826 168.035C318.74 169.072 317.631 170.084 316.498 171.071ZM323.012 164.85L322.71 164.562C323.743 163.481 324.751 162.376 325.733 161.248L326.048 161.521C325.061 162.654 324.049 163.764 323.012 164.85ZM328.927 158.057L328.601 157.798C329.53 156.627 330.432 155.434 331.307 154.22L331.645 154.464C330.766 155.683 329.86 156.881 328.927 158.057ZM334.194 150.75L333.845 150.522C334.662 149.271 335.451 148 336.21 146.71L336.569 146.922C335.806 148.217 335.014 149.493 334.194 150.75ZM338.765 142.988L338.397 142.793C339.094 141.473 339.762 140.135 340.399 138.779L340.776 138.957C340.136 140.318 339.465 141.662 338.765 142.988ZM342.598 134.836L342.213 134.677C342.785 133.298 343.326 131.903 343.835 130.494L344.227 130.635C343.715 132.051 343.172 133.452 342.598 134.836ZM345.658 126.363L345.26 126.24C345.701 124.815 346.11 123.377 346.486 121.925L346.889 122.029C346.511 123.487 346.101 124.932 345.658 126.363ZM347.916 117.644C348.224 116.18 348.498 114.703 348.739 113.216L348.328 113.149C348.088 114.63 347.815 116.1 347.509 117.558L347.916 117.644ZM349.356 108.754L348.942 108.707C349.112 107.228 349.249 105.739 349.351 104.241L349.767 104.269C349.664 105.774 349.527 107.269 349.356 108.754Z" fill="#A7A7A7"/>
<path d="M214.998 98.3242H216.47V91.6551L220.389 98.3242H222.068V89.6227H220.596V95.9146L216.933 89.6227H214.998V98.3242ZM226.489 97.3019C225.369 97.3019 224.724 96.4865 224.724 95.1844V95.087C224.724 93.7726 225.394 92.9816 226.489 92.9816C227.584 92.9816 228.241 93.7848 228.241 95.0992V95.1844C228.241 96.4865 227.584 97.3019 226.489 97.3019ZM226.477 98.4459C228.351 98.4459 229.75 97.1559 229.75 95.1722V95.0748C229.75 93.1276 228.351 91.8254 226.489 91.8254C224.615 91.8254 223.215 93.1398 223.215 95.1113V95.2087C223.215 97.1437 224.603 98.4459 226.477 98.4459ZM233.004 98.4337C233.454 98.4337 233.771 98.3607 234.002 98.2755V97.1072C233.795 97.1924 233.576 97.2289 233.284 97.2289C232.821 97.2289 232.554 96.9733 232.554 96.4135V93.0668H233.953V91.9593H232.554V90.5598H231.081V91.9593H230.229V93.0668H231.081V96.5474C231.081 97.7522 231.738 98.4337 233.004 98.4337ZM237.886 98.4459C239.516 98.4459 240.6 97.7157 240.807 96.377H239.383C239.273 96.9977 238.811 97.3506 237.922 97.3506C236.827 97.3506 236.218 96.6691 236.17 95.4643H240.831V95.0383C240.831 92.7625 239.407 91.8254 237.825 91.8254C236.012 91.8254 234.661 93.1398 234.661 95.1113V95.2087C234.661 97.2167 236.012 98.4459 237.886 98.4459ZM236.194 94.4785C236.34 93.4927 236.936 92.8964 237.825 92.8964C238.738 92.8964 239.297 93.3832 239.37 94.4785H236.194ZM241.903 98.3242H243.375V94.5759C243.375 93.5657 244.045 93.0546 244.872 93.0546C245.748 93.0546 246.138 93.4927 246.138 94.4542V98.3242H247.61V94.3203C247.61 92.5678 246.71 91.8254 245.432 91.8254C244.385 91.8254 243.68 92.3487 243.375 92.9694V91.9593H241.903V98.3242ZM251.449 98.4459C252.386 98.4459 253.201 97.8861 253.542 97.2533V98.3242H255.015V89.0142H253.542V92.9329C253.189 92.3001 252.544 91.8254 251.51 91.8254C249.855 91.8254 248.65 93.1155 248.65 95.1478V95.2452C248.65 97.3141 249.855 98.4459 251.449 98.4459ZM251.814 97.2776C250.865 97.2776 250.159 96.6082 250.159 95.2087V95.1113C250.159 93.7361 250.792 92.9816 251.875 92.9816C252.946 92.9816 253.591 93.6753 253.591 95.0748V95.1722C253.591 96.5961 252.836 97.2776 251.814 97.2776ZM258.189 98.4459C259.162 98.4459 259.722 98.093 260.136 97.5453V98.3242H261.584V94.1499C261.584 92.4096 260.465 91.8254 259.041 91.8254C257.617 91.8254 256.436 92.4461 256.315 93.9308H257.738C257.812 93.298 258.189 92.9329 258.955 92.9329C259.82 92.9329 260.112 93.3589 260.112 94.2108V94.5393H259.321C257.495 94.5393 256.059 95.0748 256.059 96.5596C256.059 97.8861 257.02 98.4459 258.189 98.4459ZM258.542 97.3871C257.812 97.3871 257.519 97.0342 257.519 96.4987C257.519 95.7198 258.237 95.4643 259.357 95.4643H260.112V96.0971C260.112 96.9125 259.442 97.3871 258.542 97.3871ZM265.158 98.4459C266.193 98.4459 266.862 97.9469 267.179 97.3263V98.3242H268.651V91.9593H267.179V95.7442C267.179 96.7543 266.485 97.2654 265.694 97.2654C264.842 97.2654 264.44 96.8273 264.44 95.8659V91.9593H262.968V96.0363C262.968 97.7279 263.905 98.4459 265.158 98.4459ZM270.154 100.503H271.626V97.3263C271.967 97.9469 272.697 98.4459 273.707 98.4459C275.35 98.4459 276.531 97.2046 276.531 95.16V95.0627C276.531 93.0059 275.302 91.8254 273.707 91.8254C272.77 91.8254 271.979 92.3731 271.626 92.9816V91.9593H270.154V100.503ZM273.342 97.2776C272.271 97.2776 271.578 96.6082 271.578 95.1844V95.087C271.578 93.6753 272.308 92.9816 273.33 92.9816C274.292 92.9816 275.022 93.6753 275.022 95.087V95.1844C275.022 96.5474 274.425 97.2776 273.342 97.2776ZM277.612 100.503H279.084V97.3263C279.425 97.9469 280.155 98.4459 281.165 98.4459C282.808 98.4459 283.989 97.2046 283.989 95.16V95.0627C283.989 93.0059 282.76 91.8254 281.165 91.8254C280.228 91.8254 279.437 92.3731 279.084 92.9816V91.9593H277.612V100.503ZM280.8 97.2776C279.729 97.2776 279.036 96.6082 279.036 95.1844V95.087C279.036 93.6753 279.766 92.9816 280.788 92.9816C281.75 92.9816 282.48 93.6753 282.48 95.087V95.1844C282.48 96.5474 281.883 97.2776 280.8 97.2776ZM285.106 98.3242H286.579V89.0142H285.106V98.3242ZM288.167 98.3242H289.639V91.9593H288.167V98.3242ZM288.885 90.9127C289.372 90.9127 289.761 90.5476 289.761 90.073C289.761 89.5862 289.372 89.2211 288.885 89.2211C288.398 89.2211 288.009 89.5862 288.009 90.073C288.009 90.5476 288.398 90.9127 288.885 90.9127ZM291.446 98.3242H292.919V93.0668H294.367V91.9593H292.919V91.0466C292.919 90.4989 293.162 90.1095 293.759 90.1095C294.026 90.1095 294.258 90.1581 294.428 90.219V89.075C294.16 88.9898 293.941 88.9533 293.588 88.9533C292.225 88.9533 291.446 89.7079 291.446 91.1074V91.9593H290.582V93.0668H291.446V98.3242ZM297.486 98.4459C298.521 98.4459 299.19 97.9469 299.507 97.3263V98.3242H300.979V91.9593H299.507V95.7442C299.507 96.7543 298.813 97.2654 298.022 97.2654C297.17 97.2654 296.768 96.8273 296.768 95.8659V91.9593H295.296V96.0363C295.296 97.7279 296.233 98.4459 297.486 98.4459ZM302.482 98.3242H303.954V94.5759C303.954 93.5657 304.624 93.0546 305.451 93.0546C306.328 93.0546 306.717 93.4927 306.717 94.4542V98.3242H308.19V94.3203C308.19 92.5678 307.289 91.8254 306.011 91.8254C304.964 91.8254 304.259 92.3487 303.954 92.9694V91.9593H302.482V98.3242Z" fill="#111111"/>
<path fill-rule="evenodd" clip-rule="evenodd" d="M349.972 254.75L349.555 254.741C349.572 253.993 349.581 253.243 349.581 252.491C349.581 251.739 349.572 250.989 349.555 250.241L349.972 250.231C349.989 250.982 349.997 251.736 349.997 252.491C349.997 253.246 349.989 253.999 349.972 254.75ZM349.767 245.732L349.351 245.76C349.249 244.262 349.112 242.773 348.942 241.294L349.356 241.247C349.527 242.732 349.664 244.227 349.767 245.732ZM348.739 236.786L348.328 236.852C348.088 235.371 347.815 233.901 347.509 232.443L347.916 232.357C348.224 233.822 348.498 235.298 348.739 236.786ZM346.889 227.972L346.486 228.077C346.11 226.625 345.701 225.186 345.26 223.761L345.658 223.638C346.101 225.069 346.511 226.514 346.889 227.972ZM344.227 219.366L343.835 219.507C343.326 218.098 342.785 216.703 342.213 215.325L342.598 215.165C343.172 216.55 343.715 217.95 344.227 219.366ZM340.776 211.045L340.399 211.222C339.762 209.866 339.094 208.528 338.397 207.208L338.765 207.013C339.465 208.339 340.136 209.683 340.776 211.045ZM336.569 203.08C335.806 201.784 335.014 200.508 334.194 199.252L333.845 199.479C334.662 200.73 335.451 202.001 336.21 203.291L336.569 203.08ZM331.645 195.537L331.307 195.781C330.432 194.567 329.53 193.374 328.601 192.203L328.927 191.944C329.86 193.12 330.766 194.318 331.645 195.537ZM326.048 188.48L325.733 188.754C324.751 187.626 323.743 186.521 322.71 185.439L323.012 185.152C324.049 186.237 325.061 187.347 326.048 188.48ZM319.826 181.966L319.538 182.267C318.457 181.235 317.352 180.227 316.224 179.244L316.498 178.93C317.631 179.917 318.74 180.929 319.826 181.966ZM313.034 176.05C311.858 175.118 310.66 174.212 309.441 173.333L309.197 173.671C310.411 174.546 311.604 175.448 312.775 176.377L313.034 176.05ZM305.726 170.784L305.498 171.133C304.248 170.316 302.977 169.527 301.687 168.768L301.898 168.409C303.194 169.171 304.47 169.964 305.726 170.784ZM297.964 166.213L297.77 166.581C296.45 165.884 295.111 165.216 293.756 164.579L293.933 164.202C295.294 164.842 296.638 165.512 297.964 166.213ZM289.813 162.38L289.653 162.764C288.275 162.193 286.88 161.652 285.47 161.143L285.612 160.751C287.028 161.262 288.428 161.805 289.813 162.38ZM281.339 159.32L281.216 159.718C279.792 159.277 278.353 158.868 276.901 158.492L277.006 158.089C278.464 158.467 279.909 158.877 281.339 159.32ZM272.62 157.061C271.156 156.754 269.68 156.479 268.192 156.239L268.126 156.65C269.607 156.89 271.077 157.163 272.535 157.469L272.62 157.061ZM263.731 155.622L263.683 156.036C262.205 155.866 260.716 155.729 259.217 155.627L259.246 155.211C260.75 155.314 262.246 155.451 263.731 155.622ZM254.747 155.006L254.737 155.423C253.989 155.406 253.239 155.397 252.487 155.397C251.735 155.397 250.985 155.406 250.237 155.423L250.227 155.006C250.978 154.989 251.732 154.98 252.487 154.98C253.242 154.98 253.995 154.989 254.747 155.006ZM245.728 155.211L245.756 155.627C244.258 155.729 242.769 155.866 241.291 156.036L241.243 155.622C242.728 155.451 244.223 155.314 245.728 155.211ZM236.782 156.239L236.848 156.65C235.367 156.89 233.897 157.163 232.439 157.469L232.354 157.061C233.818 156.754 235.294 156.479 236.782 156.239ZM227.968 158.089L228.073 158.492C226.621 158.868 225.182 159.277 223.757 159.718L223.634 159.32C225.065 158.877 226.51 158.467 227.968 158.089ZM219.362 160.751L219.504 161.143C218.094 161.652 216.699 162.193 215.321 162.764L215.161 162.38C216.546 161.805 217.946 161.262 219.362 160.751ZM211.041 164.202L211.218 164.579C209.863 165.216 208.524 165.884 207.204 166.581L207.009 166.213C208.335 165.512 209.679 164.842 211.041 164.202ZM203.076 168.409L203.287 168.768C201.997 169.527 200.726 170.316 199.475 171.133L199.248 170.784C200.504 169.964 201.78 169.171 203.076 168.409ZM195.533 173.333L195.777 173.671C194.563 174.546 193.37 175.448 192.199 176.377L191.94 176.05C193.116 175.118 194.314 174.212 195.533 173.333ZM188.476 178.93L188.75 179.244C187.622 180.227 186.517 181.235 185.435 182.267L185.148 181.966C186.234 180.929 187.343 179.917 188.476 178.93ZM181.962 185.152L182.264 185.439C181.231 186.521 180.223 187.626 179.241 188.754L178.926 188.48C179.913 187.347 180.925 186.237 181.962 185.152ZM176.047 191.944L176.373 192.203C175.444 193.374 174.542 194.567 173.667 195.781L173.329 195.537C174.208 194.318 175.114 193.12 176.047 191.944ZM170.78 199.252L171.129 199.479C170.312 200.73 169.523 202.001 168.764 203.291L168.405 203.08C169.168 201.784 169.96 200.508 170.78 199.252ZM166.209 207.013L166.577 207.208C165.88 208.528 165.212 209.867 164.575 211.222L164.198 211.045C164.838 209.683 165.509 208.339 166.209 207.013ZM162.376 215.165L162.761 215.325C162.189 216.703 161.648 218.098 161.139 219.507L160.747 219.366C161.258 217.95 161.802 216.55 162.376 215.165ZM159.316 223.638L159.714 223.761C159.273 225.186 158.864 226.625 158.488 228.077L158.085 227.972C158.463 226.514 158.873 225.069 159.316 223.638ZM157.057 232.357C156.75 233.822 156.476 235.298 156.235 236.786L156.646 236.852C156.886 235.371 157.159 233.901 157.465 232.443L157.057 232.357ZM155.618 241.247L156.032 241.294C155.862 242.773 155.725 244.262 155.623 245.76L155.207 245.732C155.31 244.227 155.447 242.732 155.618 241.247ZM155.002 250.231C154.985 250.982 154.977 251.736 154.977 252.491C154.977 253.246 154.985 253.999 155.002 254.75L155.419 254.741C155.402 253.993 155.393 253.243 155.393 252.491C155.393 251.739 155.402 250.989 155.419 250.241L155.002 250.231ZM155.207 259.25L155.623 259.221C155.725 260.72 155.862 262.208 156.032 263.687L155.618 263.735C155.447 262.25 155.31 260.754 155.207 259.25ZM156.235 268.196L156.646 268.13C156.886 269.611 157.159 271.081 157.465 272.539L157.057 272.624C156.75 271.16 156.476 269.684 156.235 268.196ZM158.085 277.01L158.488 276.905C158.864 278.357 159.273 279.796 159.714 281.22L159.316 281.343C158.873 279.913 158.463 278.468 158.085 277.01ZM160.747 285.616L161.139 285.474C161.648 286.884 162.189 288.279 162.761 289.657L162.376 289.817C161.802 288.432 161.258 287.032 160.747 285.616ZM164.198 293.937L164.575 293.76C165.212 295.115 165.88 296.453 166.577 297.774L166.209 297.968C165.509 296.642 164.838 295.298 164.198 293.937ZM168.405 301.902L168.764 301.691C169.523 302.981 170.312 304.251 171.129 305.502L170.78 305.73C169.96 304.474 169.168 303.198 168.405 301.902ZM173.329 309.444L173.667 309.201C174.542 310.415 175.444 311.608 176.373 312.779L176.047 313.037C175.114 311.861 174.208 310.664 173.329 309.444ZM178.926 316.502L179.241 316.228C180.223 317.356 181.231 318.461 182.264 319.542L181.962 319.83C180.925 318.744 179.913 317.634 178.926 316.502ZM185.148 323.016L185.435 322.714C186.517 323.747 187.622 324.755 188.75 325.737L188.476 326.051C187.343 325.065 186.234 324.053 185.148 323.016ZM191.94 328.931L192.199 328.605C193.37 329.534 194.563 330.436 195.777 331.311L195.533 331.649C194.314 330.77 193.116 329.864 191.94 328.931ZM199.248 334.198L199.475 333.849C200.726 334.666 201.997 335.454 203.287 336.214L203.076 336.573C201.78 335.81 200.504 335.018 199.248 334.198ZM207.009 338.769L207.204 338.4C208.524 339.098 209.863 339.766 211.218 340.403L211.041 340.78C209.679 340.14 208.335 339.469 207.009 338.769ZM215.161 342.602L215.321 342.217C216.699 342.789 218.094 343.33 219.504 343.839L219.362 344.231C217.946 343.719 216.546 343.176 215.161 342.602ZM223.634 345.662L223.758 345.264C225.182 345.705 226.621 346.113 228.073 346.489L227.968 346.893C226.51 346.515 225.065 346.105 223.634 345.662ZM232.354 347.92C233.818 348.228 235.294 348.502 236.782 348.743L236.848 348.332C235.367 348.092 233.897 347.819 232.439 347.513L232.354 347.92ZM241.243 349.36L241.291 348.946C242.769 349.116 244.258 349.252 245.756 349.355L245.728 349.771C244.223 349.668 242.728 349.53 241.243 349.36ZM250.227 349.976L250.237 349.559C250.985 349.576 251.735 349.585 252.487 349.585C253.239 349.585 253.989 349.576 254.737 349.559L254.747 349.976C253.995 349.993 253.242 350.001 252.487 350.001C251.732 350.001 250.978 349.993 250.227 349.976ZM259.246 349.771L259.217 349.355C260.716 349.252 262.205 349.116 263.683 348.946L263.731 349.36C262.246 349.53 260.75 349.668 259.246 349.771ZM268.192 348.743L268.126 348.332C269.607 348.092 271.077 347.819 272.535 347.513L272.62 347.92C271.156 348.228 269.68 348.502 268.192 348.743ZM277.006 346.893L276.901 346.489C278.353 346.113 279.792 345.705 281.216 345.264L281.339 345.662C279.909 346.105 278.464 346.515 277.006 346.893ZM285.612 344.231L285.47 343.839C286.88 343.33 288.275 342.789 289.653 342.217L289.813 342.602C288.428 343.176 287.028 343.719 285.612 344.231ZM293.933 340.78L293.756 340.403C295.111 339.766 296.45 339.098 297.77 338.4L297.964 338.769C296.638 339.469 295.294 340.14 293.933 340.78ZM301.898 336.573L301.687 336.214C302.977 335.454 304.248 334.666 305.498 333.849L305.726 334.198C304.47 335.018 303.194 335.81 301.898 336.573ZM309.441 331.649L309.197 331.311C310.411 330.436 311.604 329.534 312.775 328.605L313.034 328.931C311.858 329.864 310.66 330.77 309.441 331.649ZM316.498 326.051L316.224 325.737C317.352 324.755 318.457 323.747 319.538 322.714L319.826 323.016C318.74 324.053 317.631 325.065 316.498 326.051ZM323.012 319.83L322.71 319.542C323.743 318.461 324.751 317.356 325.733 316.228L326.048 316.502C325.061 317.634 324.049 318.744 323.012 319.83ZM328.927 313.037L328.601 312.779C329.53 311.608 330.432 310.415 331.307 309.201L331.645 309.444C330.766 310.664 329.86 311.861 328.927 313.037ZM334.194 305.73L333.845 305.502C334.662 304.251 335.451 302.981 336.21 301.691L336.569 301.902C335.806 303.198 335.014 304.474 334.194 305.73ZM338.765 297.968L338.397 297.774C339.094 296.453 339.762 295.115 340.399 293.76L340.776 293.937C340.136 295.298 339.465 296.642 338.765 297.968ZM342.598 289.817L342.213 289.657C342.785 288.278 343.326 286.884 343.835 285.474L344.227 285.616C343.715 287.032 343.172 288.432 342.598 289.817ZM345.658 281.343L345.26 281.22C345.701 279.796 346.11 278.357 346.486 276.905L346.889 277.01C346.511 278.468 346.101 279.913 345.658 281.343ZM347.916 272.624C348.224 271.16 348.498 269.684 348.739 268.196L348.328 268.13C348.088 269.611 347.815 271.081 347.509 272.539L347.916 272.624ZM349.356 263.735L348.942 263.687C349.112 262.208 349.249 260.72 349.351 259.221L349.767 259.25C349.664 260.754 349.527 262.25 349.356 263.735Z" fill="#A7A7A7"/>
<path d="M214.484 261H216.102V257.3H220.009V261H221.64V252.298H220.009V255.998H216.102V252.298H214.484V261ZM225.328 261.122C226.363 261.122 227.032 260.623 227.348 260.002V261H228.821V254.635H227.348V258.42C227.348 259.43 226.655 259.941 225.864 259.941C225.012 259.941 224.61 259.503 224.61 258.542V254.635H223.138V258.712C223.138 260.404 224.075 261.122 225.328 261.122ZM233.038 263.337C235.009 263.337 236.263 262.4 236.275 260.525V254.635H234.802V255.609C234.437 254.976 233.804 254.501 232.758 254.501C231.115 254.501 229.898 255.84 229.898 257.629V257.714C229.898 259.552 231.127 260.744 232.721 260.744C233.658 260.744 234.449 260.172 234.802 259.564V260.501C234.802 261.645 234.169 262.217 233.025 262.217C232.064 262.217 231.577 261.852 231.455 261.219H229.971C230.141 262.436 231.042 263.337 233.038 263.337ZM233.086 259.613C232.137 259.613 231.407 258.882 231.407 257.702V257.605C231.407 256.448 232.04 255.657 233.135 255.657C234.194 255.657 234.851 256.375 234.851 257.58V257.665C234.851 258.882 234.109 259.613 233.086 259.613ZM241.335 261.122C242.978 261.122 244.159 259.88 244.159 257.836V257.738C244.159 255.682 242.93 254.501 241.335 254.501C240.398 254.501 239.607 255.049 239.254 255.657V251.69H237.782V261H239.254V259.978C239.595 260.623 240.325 261.122 241.335 261.122ZM240.97 259.953C239.899 259.953 239.205 259.284 239.205 257.86V257.763C239.205 256.351 239.936 255.657 240.958 255.657C241.919 255.657 242.65 256.351 242.65 257.763V257.86C242.65 259.223 242.053 259.953 240.97 259.953ZM247.43 253.686H248.513L249.779 251.799H248.148L247.43 253.686ZM247.369 261.122C248.404 261.122 249.073 260.623 249.389 260.002V261H250.862V254.635H249.389V258.42C249.389 259.43 248.696 259.941 247.905 259.941C247.053 259.941 246.651 259.503 246.651 258.542V254.635H245.179V258.712C245.179 260.404 246.116 261.122 247.369 261.122ZM252.365 261H253.837V257.252C253.837 256.242 254.507 255.73 255.334 255.73C256.21 255.73 256.6 256.169 256.6 257.13V261H258.072V256.996C258.072 255.244 257.172 254.501 255.894 254.501C254.847 254.501 254.142 255.025 253.837 255.645V254.635H252.365V261ZM261.193 261.122C262.166 261.122 262.726 260.769 263.14 260.221V261H264.588V256.826C264.588 255.085 263.469 254.501 262.045 254.501C260.621 254.501 259.44 255.122 259.319 256.607H260.742C260.816 255.974 261.193 255.609 261.959 255.609C262.824 255.609 263.116 256.035 263.116 256.887V257.215H262.325C260.499 257.215 259.063 257.751 259.063 259.235C259.063 260.562 260.024 261.122 261.193 261.122ZM261.546 260.063C260.816 260.063 260.523 259.71 260.523 259.174C260.523 258.396 261.241 258.14 262.361 258.14H263.116V258.773C263.116 259.588 262.446 260.063 261.546 260.063ZM267.201 254.112L268.698 253.394C269.282 253.966 269.781 254.599 270.122 255.28C269.72 254.83 269.233 254.538 268.491 254.538C266.982 254.538 265.607 255.803 265.607 257.726V257.848C265.607 259.807 266.982 261.122 268.856 261.122C270.779 261.122 272.142 259.759 272.142 257.714V257.446C272.142 255.487 271.047 253.893 269.891 252.822L270.73 252.408L270.402 251.751L269.27 252.298C268.953 252.043 268.637 251.848 268.357 251.69H266.617C267.104 252.031 267.627 252.42 268.126 252.858L266.872 253.455L267.201 254.112ZM268.88 259.978C267.773 259.978 267.116 259.162 267.116 257.86V257.763C267.116 256.448 267.797 255.657 268.893 255.657C269.976 255.657 270.633 256.461 270.633 257.775V257.872C270.633 259.15 269.976 259.978 268.88 259.978ZM274.896 261.122C275.87 261.122 276.43 260.769 276.844 260.221V261H278.292V256.826C278.292 255.085 277.172 254.501 275.748 254.501C274.324 254.501 273.144 255.122 273.022 256.607H274.446C274.519 255.974 274.896 255.609 275.663 255.609C276.527 255.609 276.819 256.035 276.819 256.887V257.215H276.028C274.203 257.215 272.767 257.751 272.767 259.235C272.767 260.562 273.728 261.122 274.896 261.122ZM275.249 260.063C274.519 260.063 274.227 259.71 274.227 259.174C274.227 258.396 274.945 258.14 276.065 258.14H276.819V258.773C276.819 259.588 276.15 260.063 275.249 260.063ZM279.736 261H281.209V257.69C281.209 256.339 281.988 255.925 283.278 255.913V254.538C282.207 254.55 281.61 255.025 281.209 255.828V254.635H279.736V261ZM286.925 263.337C288.897 263.337 290.15 262.4 290.162 260.525V254.635H288.69V255.609C288.325 254.976 287.692 254.501 286.645 254.501C285.002 254.501 283.785 255.84 283.785 257.629V257.714C283.785 259.552 285.014 260.744 286.609 260.744C287.546 260.744 288.337 260.172 288.69 259.564V260.501C288.69 261.645 288.057 262.217 286.913 262.217C285.951 262.217 285.465 261.852 285.343 261.219H283.858C284.029 262.436 284.929 263.337 286.925 263.337ZM286.974 259.613C286.024 259.613 285.294 258.882 285.294 257.702V257.605C285.294 256.448 285.927 255.657 287.022 255.657C288.081 255.657 288.738 256.375 288.738 257.58V257.665C288.738 258.882 287.996 259.613 286.974 259.613ZM294.468 261.122C296.099 261.122 297.182 260.391 297.389 259.053H295.965C295.856 259.673 295.393 260.026 294.505 260.026C293.409 260.026 292.801 259.345 292.752 258.14H297.413V257.714C297.413 255.438 295.989 254.501 294.407 254.501C292.594 254.501 291.243 255.816 291.243 257.787V257.884C291.243 259.893 292.594 261.122 294.468 261.122ZM292.776 257.154C292.923 256.169 293.519 255.572 294.407 255.572C295.32 255.572 295.88 256.059 295.953 257.154H292.776ZM298.485 261H299.958V257.69C299.958 256.339 300.737 255.925 302.027 255.913V254.538C300.956 254.55 300.359 255.025 299.958 255.828V254.635H298.485V261ZM304.128 254.112L305.625 253.394C306.209 253.966 306.708 254.599 307.049 255.28C306.648 254.83 306.161 254.538 305.418 254.538C303.909 254.538 302.534 255.803 302.534 257.726V257.848C302.534 259.807 303.909 261.122 305.783 261.122C307.706 261.122 309.069 259.759 309.069 257.714V257.446C309.069 255.487 307.974 253.893 306.818 252.822L307.658 252.408L307.329 251.751L306.197 252.298C305.881 252.043 305.564 251.848 305.284 251.69H303.544C304.031 252.031 304.554 252.42 305.053 252.858L303.8 253.455L304.128 254.112ZM305.808 259.978C304.7 259.978 304.043 259.162 304.043 257.86V257.763C304.043 256.448 304.725 255.657 305.82 255.657C306.903 255.657 307.56 256.461 307.56 257.775V257.872C307.56 259.15 306.903 259.978 305.808 259.978Z" fill="#111111"/>
</svg>
