<svg width="43" height="43" viewBox="0 0 43 43" fill="none" xmlns="http://www.w3.org/2000/svg">
<circle cx="21.5" cy="21.5" r="21.5" fill="white"/>
<g clip-path="url(#clip0_5668_127835)">
<path d="M31.5208 21.5587C31.5208 16.0827 27.1096 11.6445 21.6667 11.6445C16.2238 11.6445 11.8125 16.0827 11.8125 21.5587C11.8125 26.5081 15.4154 30.6093 20.127 31.3529V24.4245H17.6249V21.5587H20.127V19.3745C20.127 16.8901 21.5974 15.5173 23.8492 15.5173C24.927 15.5173 26.0549 15.7109 26.0549 15.7109V18.1507H24.8115C23.5875 18.1507 23.2064 18.9156 23.2064 19.6998V21.5587H25.9394L25.5025 24.4245H23.2064V31.3529C27.9179 30.6093 31.5208 26.5081 31.5208 21.5587Z" fill="#012424"/>
</g>
<defs>
<clipPath id="clip0_5668_127835">
<rect width="19.7083" height="19.7083" fill="white" transform="translate(11.8125 11.6445)"/>
</clipPath>
</defs>
</svg>
