<svg width="43" height="43" viewBox="0 0 43 43" fill="none" xmlns="http://www.w3.org/2000/svg">
<circle opacity="0.14" cx="21.5" cy="21.5" r="21" stroke="#9D9D9D"/>
<path d="M13.2837 18.318H16.8612V29.8174H13.2837V18.318ZM15.0735 12.6016C15.4834 12.6017 15.884 12.7234 16.2247 12.9513C16.5655 13.1791 16.831 13.5029 16.9877 13.8816C17.1445 14.2604 17.1854 14.6771 17.1053 15.0791C17.0253 15.4811 16.8278 15.8503 16.5379 16.1401C16.248 16.4299 15.8786 16.6272 15.4766 16.7071C15.0745 16.787 14.6578 16.7459 14.2792 16.5889C13.9005 16.432 13.5769 16.1663 13.3492 15.8255C13.1215 15.4846 13 15.0839 13 14.674C13.0001 14.4018 13.0537 14.1323 13.158 13.8808C13.2622 13.6293 13.4149 13.4008 13.6075 13.2084C13.8 13.0159 14.0286 12.8633 14.2801 12.7592C14.5316 12.655 14.8012 12.6015 15.0735 12.6016Z" fill="white"/>
<path d="M19.1016 18.3166H22.5275V19.8887H22.5765C23.053 18.9846 24.2192 18.0312 25.958 18.0312C29.5767 18.0312 30.2454 20.4123 30.2454 23.5094V29.8161H26.6718V24.2239C26.6718 22.8904 26.6489 21.1748 24.8147 21.1748C22.955 21.1748 22.6713 22.6282 22.6713 24.1284V29.8161H19.1016V18.3166Z" fill="white"/>
</svg>
