<svg width="20" height="20" viewBox="0 0 20 20" fill="none" xmlns="http://www.w3.org/2000/svg">
<path opacity="0.25" d="M3.72852 16.7656H10.7085C11.2798 16.7656 11.7095 16.6118 11.9976 16.3042C12.2905 16.0015 12.437 15.5425 12.437 14.9272V9.63184C12.437 9.02148 12.2905 8.56494 11.9976 8.26221C11.7095 7.95947 11.2798 7.80811 10.7085 7.80811H3.72852C3.16211 7.80811 2.73242 7.95947 2.43945 8.26221C2.14648 8.56494 2 9.02148 2 9.63184V14.9272C2 15.5425 2.14648 16.0015 2.43945 16.3042C2.73242 16.6118 3.16211 16.7656 3.72852 16.7656ZM3.38428 8.45996H4.90771L4.91504 5.9917C4.91504 5.45459 5.01758 4.99805 5.22266 4.62207C5.43262 4.24609 5.71094 3.96045 6.05762 3.76514C6.40918 3.56982 6.79492 3.47217 7.21484 3.47217C7.63965 3.47217 8.02539 3.56982 8.37207 3.76514C8.72363 3.96045 9.00439 4.24609 9.21436 4.62207C9.4292 4.99805 9.53662 5.45459 9.53662 5.9917L9.5293 8.45996H11.0601V6.10889C11.0601 5.22021 10.8818 4.4707 10.5254 3.86035C10.1738 3.25 9.70508 2.78857 9.11914 2.47607C8.53809 2.15869 7.90332 2 7.21484 2C6.53125 2 5.89893 2.15869 5.31787 2.47607C4.73682 2.78857 4.26807 3.25 3.91162 3.86035C3.56006 4.4707 3.38428 5.22021 3.38428 6.10889V8.45996Z" fill="#222222"/>
</svg>
