<?xml version="1.0" encoding="utf-8"?>
<!-- Generator: Adobe Illustrator 27.2.0, SVG Export Plug-In . SVG Version: 6.00 Build 0)  -->
<svg version="1.1" id="Layer_1" xmlns="http://www.w3.org/2000/svg" xmlns:xlink="http://www.w3.org/1999/xlink" x="0px" y="0px"
	 viewBox="0 0 626 208" style="enable-background:new 0 0 626 208;" xml:space="preserve">
<style type="text/css">
	.st0{fill:#151515;}
</style>
<path class="st0" d="M0.2,166.2h34.5l7.2-35h51.8l7.9,35h44.6l-42-157H41.5L0.2,166.2z M63.3,30h8.9l17.3,79.4H46.3L63.3,30z"/>
<path class="st0" d="M153.3,207.6c12.7,0,17.7,0.2,24.2-1.4c3.1-0.7,5.3-1.4,6.5-2.4c2.2-1.9,4.8-8.2,4.8-13.9
	c0.2-2.6,0.2-6.7,0.2-12.2V164l32.1,4.1c29.7,0,44.6-12.2,44.6-43.9V79.9c0-29.5-15.8-43.6-52.5-43.6l-59.9,4.6V207.6z M189.5,59.2
	h22.1c7.4,0,12.2,1.4,14.4,4.1c2.4,2.6,3.6,8.6,3.6,17.7v43.2c0,9.3-1,15.3-3.1,18c-1.9,2.6-6.5,4.1-13.4,4.1h-23.5V59.2z"/>
<path class="st0" d="M339.7,167.9c37.6,0,52.3-13.2,52.3-43.9V80.3c0-30.4-14.9-44.1-52.3-44.1h-7.9c-37.2,0-52.3,13.7-52.3,44.1
	V124c0,30.4,14.6,43.9,52.3,43.9H339.7z M333.7,146c-7.4,0-12.5-1.4-14.9-4.3c-2.2-2.9-3.4-8.9-3.4-18.2V80.6
	c0-9.4,1.2-15.3,3.6-18.2c2.4-2.9,7.2-4.3,14.6-4.3h3.4c7.4,0,12.5,1.4,14.9,4.3c2.4,2.9,3.6,8.9,3.6,18.2v42.9
	c0,9.4-1.2,15.3-3.6,18.2c-2.2,2.9-7.2,4.3-14.6,4.3H333.7z"/>
<path class="st0" d="M407.8,0v166.1h36V20.5C443.7,20.5,446.1,0,407.8,0z"/>
<path class="st0" d="M573.5,167.9c37.6,0,52.3-13.2,52.3-43.9V80.3c0-30.4-14.9-44.1-52.3-44.1h-7.9c-37.2,0-52.3,13.7-52.3,44.1
	V124c0,30.4,14.6,43.9,52.3,43.9H573.5z M567.5,146c-7.4,0-12.5-1.4-14.9-4.3c-2.2-2.9-3.4-8.9-3.4-18.2V80.6
	c0-9.4,1.2-15.3,3.6-18.2c2.4-2.9,7.2-4.3,14.6-4.3h3.4c7.4,0,12.5,1.4,14.9,4.3c2.4,2.9,3.6,8.9,3.6,18.2v42.9
	c0,9.4-1.2,15.3-3.6,18.2c-2.2,2.9-7.2,4.3-14.6,4.3H567.5z"/>
<path class="st0" d="M461.5,0v166.1h36V20.5C497.5,20.5,499.8,0,461.5,0z"/>
</svg>
