<svg width="64" height="64" viewBox="0 0 64 64" fill="none" xmlns="http://www.w3.org/2000/svg">
<path opacity="0.1" fill-rule="evenodd" clip-rule="evenodd" d="M63.9325 34.0949L62.9346 34.0304C62.978 33.3593 63 32.6823 63 32C63 31.3177 62.978 30.6407 62.9346 29.9696L63.9325 29.9051C63.9773 30.5976 64 31.2962 64 32C64 32.7038 63.9773 33.4024 63.9325 34.0949ZM63.3909 25.7548L62.4099 25.9489C62.1451 24.61 61.794 23.3023 61.3627 22.0315L62.3097 21.7102C62.755 23.0222 63.1175 24.3725 63.3909 25.7548ZM60.7064 17.8437L59.8098 18.2867C59.2084 17.0694 58.5294 15.8973 57.7791 14.7766L58.6101 14.2203C59.3845 15.377 60.0855 16.587 60.7064 17.8437ZM56.0593 10.9008L55.3077 11.5604C54.415 10.5433 53.4567 9.58501 52.4396 8.69228L53.0992 7.9407C54.149 8.86205 55.1379 9.85101 56.0593 10.9008ZM49.7797 5.3899L49.2234 6.22087C48.1027 5.47063 46.9306 4.79158 45.7133 4.19017L46.1563 3.29363C47.413 3.91452 48.623 4.6155 49.7797 5.3899ZM42.2898 1.69032L41.9684 2.63727C40.6977 2.20602 39.39 1.85494 38.0511 1.59008L38.2452 0.609089C39.6275 0.88255 40.9778 1.24504 42.2898 1.69032ZM34.0949 0.0674764L34.0304 1.06539C33.3593 1.02203 32.6823 1 32 1C31.3177 1 30.6407 1.02203 29.9696 1.06539L29.9051 0.0674765C30.5976 0.0227234 31.2962 0 32 0C32.7038 0 33.4024 0.0227233 34.0949 0.0674764ZM25.7548 0.60909L25.9489 1.59008C24.61 1.85494 23.3023 2.20602 22.0315 2.63727L21.7102 1.69032C23.0222 1.24504 24.3725 0.88255 25.7548 0.60909ZM17.8437 3.29363L18.2867 4.19017C17.0694 4.79158 15.8973 5.47063 14.7766 6.22088L14.2203 5.38991C15.377 4.61551 16.587 3.91453 17.8437 3.29363ZM10.9008 7.9407L11.5604 8.69228C10.5433 9.58501 9.58501 10.5433 8.69228 11.5604L7.9407 10.9008C8.86205 9.85101 9.85101 8.86205 10.9008 7.9407ZM5.3899 14.2203L6.22087 14.7766C5.47063 15.8973 4.79158 17.0694 4.19017 18.2867L3.29363 17.8437C3.91452 16.587 4.6155 15.377 5.3899 14.2203ZM1.69032 21.7102L2.63727 22.0316C2.20602 23.3023 1.85494 24.61 1.59008 25.9489L0.609089 25.7548C0.88255 24.3725 1.24504 23.0222 1.69032 21.7102ZM0.0674764 29.9051C0.0227233 30.5976 0 31.2962 0 32C0 32.7038 0.0227234 33.4024 0.0674765 34.0949L1.06539 34.0304C1.02203 33.3593 1 32.6823 1 32C1 31.3177 1.02203 30.6407 1.06539 29.9696L0.0674764 29.9051ZM0.609089 38.2452L1.59008 38.0511C1.85494 39.39 2.20602 40.6977 2.63727 41.9684L1.69032 42.2898C1.24504 40.9778 0.88255 39.6275 0.609089 38.2452ZM3.29363 46.1563L4.19017 45.7133C4.79158 46.9306 5.47063 48.1027 6.22088 49.2234L5.38991 49.7797C4.61551 48.623 3.91453 47.413 3.29363 46.1563ZM7.9407 53.0992L8.69228 52.4396C9.58501 53.4567 10.5433 54.415 11.5604 55.3077L10.9008 56.0593C9.85101 55.138 8.86205 54.149 7.9407 53.0992ZM14.2203 58.6101L14.7766 57.7791C15.8973 58.5294 17.0694 59.2084 18.2867 59.8098L17.8437 60.7064C16.587 60.0855 15.377 59.3845 14.2203 58.6101ZM21.7102 62.3097L22.0316 61.3627C23.3023 61.794 24.61 62.1451 25.9489 62.4099L25.7548 63.3909C24.3725 63.1175 23.0222 62.755 21.7102 62.3097ZM29.9051 63.9325L29.9696 62.9346C30.6407 62.978 31.3177 63 32 63C32.6823 63 33.3593 62.978 34.0304 62.9346L34.0949 63.9325C33.4024 63.9773 32.7038 64 32 64C31.2962 64 30.5976 63.9773 29.9051 63.9325ZM38.2452 63.3909L38.0511 62.4099C39.39 62.1451 40.6977 61.794 41.9684 61.3627L42.2898 62.3097C40.9778 62.755 39.6275 63.1175 38.2452 63.3909ZM46.1563 60.7064L45.7133 59.8098C46.9306 59.2084 48.1027 58.5294 49.2234 57.7791L49.7797 58.6101C48.623 59.3845 47.413 60.0855 46.1563 60.7064ZM53.0992 56.0593L52.4396 55.3077C53.4567 54.415 54.415 53.4567 55.3077 52.4396L56.0593 53.0992C55.138 54.149 54.149 55.1379 53.0992 56.0593ZM58.6101 49.7797L57.7791 49.2234C58.5294 48.1027 59.2084 46.9306 59.8098 45.7133L60.7064 46.1563C60.0855 47.413 59.3845 48.623 58.6101 49.7797ZM62.3097 42.2898L61.3627 41.9684C61.794 40.6977 62.1451 39.39 62.4099 38.0511L63.3909 38.2452C63.1175 39.6275 62.755 40.9778 62.3097 42.2898Z" fill="white"/>
<path fill-rule="evenodd" clip-rule="evenodd" d="M32.8071 35.1928L35.9999 32L37 33L32.1 37.9001L27.1999 33L28.2 32L31.3928 35.1928L31.3928 27L32.8071 27L32.8071 35.1928Z" fill="#F6F6F6"/>
</svg>
